<?xml version="1.0" encoding="utf-8" standalone="no"?>
<!DOCTYPE svg PUBLIC "-//W3C//DTD SVG 1.1//EN"
  "http://www.w3.org/Graphics/SVG/1.1/DTD/svg11.dtd">
<svg xmlns:xlink="http://www.w3.org/1999/xlink" width="404.923125pt" height="310.86825pt" viewBox="0 0 404.923125 310.86825" xmlns="http://www.w3.org/2000/svg" version="1.1">
 <metadata>
  <rdf:RDF xmlns:dc="http://purl.org/dc/elements/1.1/" xmlns:cc="http://creativecommons.org/ns#" xmlns:rdf="http://www.w3.org/1999/02/22-rdf-syntax-ns#">
   <cc:Work>
    <dc:type rdf:resource="http://purl.org/dc/dcmitype/StillImage"/>
    <dc:date>2024-09-11T21:59:14.774424</dc:date>
    <dc:format>image/svg+xml</dc:format>
    <dc:creator>
     <cc:Agent>
      <dc:title>Matplotlib v3.9.0, https://matplotlib.org/</dc:title>
     </cc:Agent>
    </dc:creator>
   </cc:Work>
  </rdf:RDF>
 </metadata>
 <defs>
  <style type="text/css">*{stroke-linejoin: round; stroke-linecap: butt}</style>
 </defs>
 <g id="figure_1">
  <g id="patch_1">
   <path d="M 0 310.86825 
L 404.923125 310.86825 
L 404.923125 0 
L 0 0 
z
" style="fill: #ffffff"/>
  </g>
  <g id="axes_1">
   <g id="patch_2">
    <path d="M 40.603125 273.312 
L 397.723125 273.312 
L 397.723125 7.2 
L 40.603125 7.2 
z
" style="fill: #ffffff"/>
   </g>
   <g id="matplotlib.axis_1">
    <g id="xtick_1">
     <g id="line2d_1">
      <defs>
       <path id="m849f9f181a" d="M 0 0 
L 0 3.5 
" style="stroke: #000000; stroke-width: 0.8"/>
      </defs>
      <g>
       <use xlink:href="#m849f9f181a" x="63.139824" y="273.312" style="stroke: #000000; stroke-width: 0.8"/>
      </g>
     </g>
     <g id="text_1">
      <!-- 1 -->
      <g transform="translate(59.958574 287.910437) scale(0.1 -0.1)">
       <defs>
        <path id="DejaVuSans-31" d="M 794 531 
L 1825 531 
L 1825 4091 
L 703 3866 
L 703 4441 
L 1819 4666 
L 2450 4666 
L 2450 531 
L 3481 531 
L 3481 0 
L 794 0 
L 794 531 
z
" transform="scale(0.015625)"/>
       </defs>
       <use xlink:href="#DejaVuSans-31"/>
      </g>
     </g>
    </g>
    <g id="xtick_2">
     <g id="line2d_2">
      <g>
       <use xlink:href="#m849f9f181a" x="97.811669" y="273.312" style="stroke: #000000; stroke-width: 0.8"/>
      </g>
     </g>
     <g id="text_2">
      <!-- 2 -->
      <g transform="translate(94.630419 287.910437) scale(0.1 -0.1)">
       <defs>
        <path id="DejaVuSans-32" d="M 1228 531 
L 3431 531 
L 3431 0 
L 469 0 
L 469 531 
Q 828 903 1448 1529 
Q 2069 2156 2228 2338 
Q 2531 2678 2651 2914 
Q 2772 3150 2772 3378 
Q 2772 3750 2511 3984 
Q 2250 4219 1831 4219 
Q 1534 4219 1204 4116 
Q 875 4013 500 3803 
L 500 4441 
Q 881 4594 1212 4672 
Q 1544 4750 1819 4750 
Q 2544 4750 2975 4387 
Q 3406 4025 3406 3419 
Q 3406 3131 3298 2873 
Q 3191 2616 2906 2266 
Q 2828 2175 2409 1742 
Q 1991 1309 1228 531 
z
" transform="scale(0.015625)"/>
       </defs>
       <use xlink:href="#DejaVuSans-32"/>
      </g>
     </g>
    </g>
    <g id="xtick_3">
     <g id="line2d_3">
      <g>
       <use xlink:href="#m849f9f181a" x="132.483513" y="273.312" style="stroke: #000000; stroke-width: 0.8"/>
      </g>
     </g>
     <g id="text_3">
      <!-- 3 -->
      <g transform="translate(129.302263 287.910437) scale(0.1 -0.1)">
       <defs>
        <path id="DejaVuSans-33" d="M 2597 2516 
Q 3050 2419 3304 2112 
Q 3559 1806 3559 1356 
Q 3559 666 3084 287 
Q 2609 -91 1734 -91 
Q 1441 -91 1130 -33 
Q 819 25 488 141 
L 488 750 
Q 750 597 1062 519 
Q 1375 441 1716 441 
Q 2309 441 2620 675 
Q 2931 909 2931 1356 
Q 2931 1769 2642 2001 
Q 2353 2234 1838 2234 
L 1294 2234 
L 1294 2753 
L 1863 2753 
Q 2328 2753 2575 2939 
Q 2822 3125 2822 3475 
Q 2822 3834 2567 4026 
Q 2313 4219 1838 4219 
Q 1578 4219 1281 4162 
Q 984 4106 628 3988 
L 628 4550 
Q 988 4650 1302 4700 
Q 1616 4750 1894 4750 
Q 2613 4750 3031 4423 
Q 3450 4097 3450 3541 
Q 3450 3153 3228 2886 
Q 3006 2619 2597 2516 
z
" transform="scale(0.015625)"/>
       </defs>
       <use xlink:href="#DejaVuSans-33"/>
      </g>
     </g>
    </g>
    <g id="xtick_4">
     <g id="line2d_4">
      <g>
       <use xlink:href="#m849f9f181a" x="167.155358" y="273.312" style="stroke: #000000; stroke-width: 0.8"/>
      </g>
     </g>
     <g id="text_4">
      <!-- 4 -->
      <g transform="translate(163.974108 287.910437) scale(0.1 -0.1)">
       <defs>
        <path id="DejaVuSans-34" d="M 2419 4116 
L 825 1625 
L 2419 1625 
L 2419 4116 
z
M 2253 4666 
L 3047 4666 
L 3047 1625 
L 3713 1625 
L 3713 1100 
L 3047 1100 
L 3047 0 
L 2419 0 
L 2419 1100 
L 313 1100 
L 313 1709 
L 2253 4666 
z
" transform="scale(0.015625)"/>
       </defs>
       <use xlink:href="#DejaVuSans-34"/>
      </g>
     </g>
    </g>
    <g id="xtick_5">
     <g id="line2d_5">
      <g>
       <use xlink:href="#m849f9f181a" x="201.827203" y="273.312" style="stroke: #000000; stroke-width: 0.8"/>
      </g>
     </g>
     <g id="text_5">
      <!-- 5 -->
      <g transform="translate(198.645953 287.910437) scale(0.1 -0.1)">
       <defs>
        <path id="DejaVuSans-35" d="M 691 4666 
L 3169 4666 
L 3169 4134 
L 1269 4134 
L 1269 2991 
Q 1406 3038 1543 3061 
Q 1681 3084 1819 3084 
Q 2600 3084 3056 2656 
Q 3513 2228 3513 1497 
Q 3513 744 3044 326 
Q 2575 -91 1722 -91 
Q 1428 -91 1123 -41 
Q 819 9 494 109 
L 494 744 
Q 775 591 1075 516 
Q 1375 441 1709 441 
Q 2250 441 2565 725 
Q 2881 1009 2881 1497 
Q 2881 1984 2565 2268 
Q 2250 2553 1709 2553 
Q 1456 2553 1204 2497 
Q 953 2441 691 2322 
L 691 4666 
z
" transform="scale(0.015625)"/>
       </defs>
       <use xlink:href="#DejaVuSans-35"/>
      </g>
     </g>
    </g>
    <g id="xtick_6">
     <g id="line2d_6">
      <g>
       <use xlink:href="#m849f9f181a" x="236.499047" y="273.312" style="stroke: #000000; stroke-width: 0.8"/>
      </g>
     </g>
     <g id="text_6">
      <!-- 6 -->
      <g transform="translate(233.317797 287.910437) scale(0.1 -0.1)">
       <defs>
        <path id="DejaVuSans-36" d="M 2113 2584 
Q 1688 2584 1439 2293 
Q 1191 2003 1191 1497 
Q 1191 994 1439 701 
Q 1688 409 2113 409 
Q 2538 409 2786 701 
Q 3034 994 3034 1497 
Q 3034 2003 2786 2293 
Q 2538 2584 2113 2584 
z
M 3366 4563 
L 3366 3988 
Q 3128 4100 2886 4159 
Q 2644 4219 2406 4219 
Q 1781 4219 1451 3797 
Q 1122 3375 1075 2522 
Q 1259 2794 1537 2939 
Q 1816 3084 2150 3084 
Q 2853 3084 3261 2657 
Q 3669 2231 3669 1497 
Q 3669 778 3244 343 
Q 2819 -91 2113 -91 
Q 1303 -91 875 529 
Q 447 1150 447 2328 
Q 447 3434 972 4092 
Q 1497 4750 2381 4750 
Q 2619 4750 2861 4703 
Q 3103 4656 3366 4563 
z
" transform="scale(0.015625)"/>
       </defs>
       <use xlink:href="#DejaVuSans-36"/>
      </g>
     </g>
    </g>
    <g id="xtick_7">
     <g id="line2d_7">
      <g>
       <use xlink:href="#m849f9f181a" x="271.170892" y="273.312" style="stroke: #000000; stroke-width: 0.8"/>
      </g>
     </g>
     <g id="text_7">
      <!-- 7 -->
      <g transform="translate(267.989642 287.910437) scale(0.1 -0.1)">
       <defs>
        <path id="DejaVuSans-37" d="M 525 4666 
L 3525 4666 
L 3525 4397 
L 1831 0 
L 1172 0 
L 2766 4134 
L 525 4134 
L 525 4666 
z
" transform="scale(0.015625)"/>
       </defs>
       <use xlink:href="#DejaVuSans-37"/>
      </g>
     </g>
    </g>
    <g id="xtick_8">
     <g id="line2d_8">
      <g>
       <use xlink:href="#m849f9f181a" x="305.842737" y="273.312" style="stroke: #000000; stroke-width: 0.8"/>
      </g>
     </g>
     <g id="text_8">
      <!-- 8 -->
      <g transform="translate(302.661487 287.910437) scale(0.1 -0.1)">
       <defs>
        <path id="DejaVuSans-38" d="M 2034 2216 
Q 1584 2216 1326 1975 
Q 1069 1734 1069 1313 
Q 1069 891 1326 650 
Q 1584 409 2034 409 
Q 2484 409 2743 651 
Q 3003 894 3003 1313 
Q 3003 1734 2745 1975 
Q 2488 2216 2034 2216 
z
M 1403 2484 
Q 997 2584 770 2862 
Q 544 3141 544 3541 
Q 544 4100 942 4425 
Q 1341 4750 2034 4750 
Q 2731 4750 3128 4425 
Q 3525 4100 3525 3541 
Q 3525 3141 3298 2862 
Q 3072 2584 2669 2484 
Q 3125 2378 3379 2068 
Q 3634 1759 3634 1313 
Q 3634 634 3220 271 
Q 2806 -91 2034 -91 
Q 1263 -91 848 271 
Q 434 634 434 1313 
Q 434 1759 690 2068 
Q 947 2378 1403 2484 
z
M 1172 3481 
Q 1172 3119 1398 2916 
Q 1625 2713 2034 2713 
Q 2441 2713 2670 2916 
Q 2900 3119 2900 3481 
Q 2900 3844 2670 4047 
Q 2441 4250 2034 4250 
Q 1625 4250 1398 4047 
Q 1172 3844 1172 3481 
z
" transform="scale(0.015625)"/>
       </defs>
       <use xlink:href="#DejaVuSans-38"/>
      </g>
     </g>
    </g>
    <g id="xtick_9">
     <g id="line2d_9">
      <g>
       <use xlink:href="#m849f9f181a" x="340.514581" y="273.312" style="stroke: #000000; stroke-width: 0.8"/>
      </g>
     </g>
     <g id="text_9">
      <!-- 9 -->
      <g transform="translate(337.333331 287.910437) scale(0.1 -0.1)">
       <defs>
        <path id="DejaVuSans-39" d="M 703 97 
L 703 672 
Q 941 559 1184 500 
Q 1428 441 1663 441 
Q 2288 441 2617 861 
Q 2947 1281 2994 2138 
Q 2813 1869 2534 1725 
Q 2256 1581 1919 1581 
Q 1219 1581 811 2004 
Q 403 2428 403 3163 
Q 403 3881 828 4315 
Q 1253 4750 1959 4750 
Q 2769 4750 3195 4129 
Q 3622 3509 3622 2328 
Q 3622 1225 3098 567 
Q 2575 -91 1691 -91 
Q 1453 -91 1209 -44 
Q 966 3 703 97 
z
M 1959 2075 
Q 2384 2075 2632 2365 
Q 2881 2656 2881 3163 
Q 2881 3666 2632 3958 
Q 2384 4250 1959 4250 
Q 1534 4250 1286 3958 
Q 1038 3666 1038 3163 
Q 1038 2656 1286 2365 
Q 1534 2075 1959 2075 
z
" transform="scale(0.015625)"/>
       </defs>
       <use xlink:href="#DejaVuSans-39"/>
      </g>
     </g>
    </g>
    <g id="xtick_10">
     <g id="line2d_10">
      <g>
       <use xlink:href="#m849f9f181a" x="375.186426" y="273.312" style="stroke: #000000; stroke-width: 0.8"/>
      </g>
     </g>
     <g id="text_10">
      <!-- 10 -->
      <g transform="translate(368.823926 287.910437) scale(0.1 -0.1)">
       <defs>
        <path id="DejaVuSans-30" d="M 2034 4250 
Q 1547 4250 1301 3770 
Q 1056 3291 1056 2328 
Q 1056 1369 1301 889 
Q 1547 409 2034 409 
Q 2525 409 2770 889 
Q 3016 1369 3016 2328 
Q 3016 3291 2770 3770 
Q 2525 4250 2034 4250 
z
M 2034 4750 
Q 2819 4750 3233 4129 
Q 3647 3509 3647 2328 
Q 3647 1150 3233 529 
Q 2819 -91 2034 -91 
Q 1250 -91 836 529 
Q 422 1150 422 2328 
Q 422 3509 836 4129 
Q 1250 4750 2034 4750 
z
" transform="scale(0.015625)"/>
       </defs>
       <use xlink:href="#DejaVuSans-31"/>
       <use xlink:href="#DejaVuSans-30" x="63.623047"/>
      </g>
     </g>
    </g>
    <g id="text_11">
     <!-- Number of mutations -->
     <g transform="translate(165.834219 301.588562) scale(0.1 -0.1)">
      <defs>
       <path id="DejaVuSans-4e" d="M 628 4666 
L 1478 4666 
L 3547 763 
L 3547 4666 
L 4159 4666 
L 4159 0 
L 3309 0 
L 1241 3903 
L 1241 0 
L 628 0 
L 628 4666 
z
" transform="scale(0.015625)"/>
       <path id="DejaVuSans-75" d="M 544 1381 
L 544 3500 
L 1119 3500 
L 1119 1403 
Q 1119 906 1312 657 
Q 1506 409 1894 409 
Q 2359 409 2629 706 
Q 2900 1003 2900 1516 
L 2900 3500 
L 3475 3500 
L 3475 0 
L 2900 0 
L 2900 538 
Q 2691 219 2414 64 
Q 2138 -91 1772 -91 
Q 1169 -91 856 284 
Q 544 659 544 1381 
z
M 1991 3584 
L 1991 3584 
z
" transform="scale(0.015625)"/>
       <path id="DejaVuSans-6d" d="M 3328 2828 
Q 3544 3216 3844 3400 
Q 4144 3584 4550 3584 
Q 5097 3584 5394 3201 
Q 5691 2819 5691 2113 
L 5691 0 
L 5113 0 
L 5113 2094 
Q 5113 2597 4934 2840 
Q 4756 3084 4391 3084 
Q 3944 3084 3684 2787 
Q 3425 2491 3425 1978 
L 3425 0 
L 2847 0 
L 2847 2094 
Q 2847 2600 2669 2842 
Q 2491 3084 2119 3084 
Q 1678 3084 1418 2786 
Q 1159 2488 1159 1978 
L 1159 0 
L 581 0 
L 581 3500 
L 1159 3500 
L 1159 2956 
Q 1356 3278 1631 3431 
Q 1906 3584 2284 3584 
Q 2666 3584 2933 3390 
Q 3200 3197 3328 2828 
z
" transform="scale(0.015625)"/>
       <path id="DejaVuSans-62" d="M 3116 1747 
Q 3116 2381 2855 2742 
Q 2594 3103 2138 3103 
Q 1681 3103 1420 2742 
Q 1159 2381 1159 1747 
Q 1159 1113 1420 752 
Q 1681 391 2138 391 
Q 2594 391 2855 752 
Q 3116 1113 3116 1747 
z
M 1159 2969 
Q 1341 3281 1617 3432 
Q 1894 3584 2278 3584 
Q 2916 3584 3314 3078 
Q 3713 2572 3713 1747 
Q 3713 922 3314 415 
Q 2916 -91 2278 -91 
Q 1894 -91 1617 61 
Q 1341 213 1159 525 
L 1159 0 
L 581 0 
L 581 4863 
L 1159 4863 
L 1159 2969 
z
" transform="scale(0.015625)"/>
       <path id="DejaVuSans-65" d="M 3597 1894 
L 3597 1613 
L 953 1613 
Q 991 1019 1311 708 
Q 1631 397 2203 397 
Q 2534 397 2845 478 
Q 3156 559 3463 722 
L 3463 178 
Q 3153 47 2828 -22 
Q 2503 -91 2169 -91 
Q 1331 -91 842 396 
Q 353 884 353 1716 
Q 353 2575 817 3079 
Q 1281 3584 2069 3584 
Q 2775 3584 3186 3129 
Q 3597 2675 3597 1894 
z
M 3022 2063 
Q 3016 2534 2758 2815 
Q 2500 3097 2075 3097 
Q 1594 3097 1305 2825 
Q 1016 2553 972 2059 
L 3022 2063 
z
" transform="scale(0.015625)"/>
       <path id="DejaVuSans-72" d="M 2631 2963 
Q 2534 3019 2420 3045 
Q 2306 3072 2169 3072 
Q 1681 3072 1420 2755 
Q 1159 2438 1159 1844 
L 1159 0 
L 581 0 
L 581 3500 
L 1159 3500 
L 1159 2956 
Q 1341 3275 1631 3429 
Q 1922 3584 2338 3584 
Q 2397 3584 2469 3576 
Q 2541 3569 2628 3553 
L 2631 2963 
z
" transform="scale(0.015625)"/>
       <path id="DejaVuSans-20" transform="scale(0.015625)"/>
       <path id="DejaVuSans-6f" d="M 1959 3097 
Q 1497 3097 1228 2736 
Q 959 2375 959 1747 
Q 959 1119 1226 758 
Q 1494 397 1959 397 
Q 2419 397 2687 759 
Q 2956 1122 2956 1747 
Q 2956 2369 2687 2733 
Q 2419 3097 1959 3097 
z
M 1959 3584 
Q 2709 3584 3137 3096 
Q 3566 2609 3566 1747 
Q 3566 888 3137 398 
Q 2709 -91 1959 -91 
Q 1206 -91 779 398 
Q 353 888 353 1747 
Q 353 2609 779 3096 
Q 1206 3584 1959 3584 
z
" transform="scale(0.015625)"/>
       <path id="DejaVuSans-66" d="M 2375 4863 
L 2375 4384 
L 1825 4384 
Q 1516 4384 1395 4259 
Q 1275 4134 1275 3809 
L 1275 3500 
L 2222 3500 
L 2222 3053 
L 1275 3053 
L 1275 0 
L 697 0 
L 697 3053 
L 147 3053 
L 147 3500 
L 697 3500 
L 697 3744 
Q 697 4328 969 4595 
Q 1241 4863 1831 4863 
L 2375 4863 
z
" transform="scale(0.015625)"/>
       <path id="DejaVuSans-74" d="M 1172 4494 
L 1172 3500 
L 2356 3500 
L 2356 3053 
L 1172 3053 
L 1172 1153 
Q 1172 725 1289 603 
Q 1406 481 1766 481 
L 2356 481 
L 2356 0 
L 1766 0 
Q 1100 0 847 248 
Q 594 497 594 1153 
L 594 3053 
L 172 3053 
L 172 3500 
L 594 3500 
L 594 4494 
L 1172 4494 
z
" transform="scale(0.015625)"/>
       <path id="DejaVuSans-61" d="M 2194 1759 
Q 1497 1759 1228 1600 
Q 959 1441 959 1056 
Q 959 750 1161 570 
Q 1363 391 1709 391 
Q 2188 391 2477 730 
Q 2766 1069 2766 1631 
L 2766 1759 
L 2194 1759 
z
M 3341 1997 
L 3341 0 
L 2766 0 
L 2766 531 
Q 2569 213 2275 61 
Q 1981 -91 1556 -91 
Q 1019 -91 701 211 
Q 384 513 384 1019 
Q 384 1609 779 1909 
Q 1175 2209 1959 2209 
L 2766 2209 
L 2766 2266 
Q 2766 2663 2505 2880 
Q 2244 3097 1772 3097 
Q 1472 3097 1187 3025 
Q 903 2953 641 2809 
L 641 3341 
Q 956 3463 1253 3523 
Q 1550 3584 1831 3584 
Q 2591 3584 2966 3190 
Q 3341 2797 3341 1997 
z
" transform="scale(0.015625)"/>
       <path id="DejaVuSans-69" d="M 603 3500 
L 1178 3500 
L 1178 0 
L 603 0 
L 603 3500 
z
M 603 4863 
L 1178 4863 
L 1178 4134 
L 603 4134 
L 603 4863 
z
" transform="scale(0.015625)"/>
       <path id="DejaVuSans-6e" d="M 3513 2113 
L 3513 0 
L 2938 0 
L 2938 2094 
Q 2938 2591 2744 2837 
Q 2550 3084 2163 3084 
Q 1697 3084 1428 2787 
Q 1159 2491 1159 1978 
L 1159 0 
L 581 0 
L 581 3500 
L 1159 3500 
L 1159 2956 
Q 1366 3272 1645 3428 
Q 1925 3584 2291 3584 
Q 2894 3584 3203 3211 
Q 3513 2838 3513 2113 
z
" transform="scale(0.015625)"/>
       <path id="DejaVuSans-73" d="M 2834 3397 
L 2834 2853 
Q 2591 2978 2328 3040 
Q 2066 3103 1784 3103 
Q 1356 3103 1142 2972 
Q 928 2841 928 2578 
Q 928 2378 1081 2264 
Q 1234 2150 1697 2047 
L 1894 2003 
Q 2506 1872 2764 1633 
Q 3022 1394 3022 966 
Q 3022 478 2636 193 
Q 2250 -91 1575 -91 
Q 1294 -91 989 -36 
Q 684 19 347 128 
L 347 722 
Q 666 556 975 473 
Q 1284 391 1588 391 
Q 1994 391 2212 530 
Q 2431 669 2431 922 
Q 2431 1156 2273 1281 
Q 2116 1406 1581 1522 
L 1381 1569 
Q 847 1681 609 1914 
Q 372 2147 372 2553 
Q 372 3047 722 3315 
Q 1072 3584 1716 3584 
Q 2034 3584 2315 3537 
Q 2597 3491 2834 3397 
z
" transform="scale(0.015625)"/>
      </defs>
      <use xlink:href="#DejaVuSans-4e"/>
      <use xlink:href="#DejaVuSans-75" x="74.804688"/>
      <use xlink:href="#DejaVuSans-6d" x="138.183594"/>
      <use xlink:href="#DejaVuSans-62" x="235.595703"/>
      <use xlink:href="#DejaVuSans-65" x="299.072266"/>
      <use xlink:href="#DejaVuSans-72" x="360.595703"/>
      <use xlink:href="#DejaVuSans-20" x="401.708984"/>
      <use xlink:href="#DejaVuSans-6f" x="433.496094"/>
      <use xlink:href="#DejaVuSans-66" x="494.677734"/>
      <use xlink:href="#DejaVuSans-20" x="529.882812"/>
      <use xlink:href="#DejaVuSans-6d" x="561.669922"/>
      <use xlink:href="#DejaVuSans-75" x="659.082031"/>
      <use xlink:href="#DejaVuSans-74" x="722.460938"/>
      <use xlink:href="#DejaVuSans-61" x="761.669922"/>
      <use xlink:href="#DejaVuSans-74" x="822.949219"/>
      <use xlink:href="#DejaVuSans-69" x="862.158203"/>
      <use xlink:href="#DejaVuSans-6f" x="889.941406"/>
      <use xlink:href="#DejaVuSans-6e" x="951.123047"/>
      <use xlink:href="#DejaVuSans-73" x="1014.501953"/>
     </g>
    </g>
   </g>
   <g id="matplotlib.axis_2">
    <g id="ytick_1">
     <g id="line2d_11">
      <defs>
       <path id="m39f9c862c0" d="M 0 0 
L -3.5 0 
" style="stroke: #000000; stroke-width: 0.8"/>
      </defs>
      <g>
       <use xlink:href="#m39f9c862c0" x="40.603125" y="263.464559" style="stroke: #000000; stroke-width: 0.8"/>
      </g>
     </g>
     <g id="text_12">
      <!-- 0 -->
      <g transform="translate(27.240625 267.263778) scale(0.1 -0.1)">
       <use xlink:href="#DejaVuSans-30"/>
      </g>
     </g>
    </g>
    <g id="ytick_2">
     <g id="line2d_12">
      <g>
       <use xlink:href="#m39f9c862c0" x="40.603125" y="219.992412" style="stroke: #000000; stroke-width: 0.8"/>
      </g>
     </g>
     <g id="text_13">
      <!-- 10 -->
      <g transform="translate(20.878125 223.791631) scale(0.1 -0.1)">
       <use xlink:href="#DejaVuSans-31"/>
       <use xlink:href="#DejaVuSans-30" x="63.623047"/>
      </g>
     </g>
    </g>
    <g id="ytick_3">
     <g id="line2d_13">
      <g>
       <use xlink:href="#m39f9c862c0" x="40.603125" y="176.520265" style="stroke: #000000; stroke-width: 0.8"/>
      </g>
     </g>
     <g id="text_14">
      <!-- 20 -->
      <g transform="translate(20.878125 180.319484) scale(0.1 -0.1)">
       <use xlink:href="#DejaVuSans-32"/>
       <use xlink:href="#DejaVuSans-30" x="63.623047"/>
      </g>
     </g>
    </g>
    <g id="ytick_4">
     <g id="line2d_14">
      <g>
       <use xlink:href="#m39f9c862c0" x="40.603125" y="133.048118" style="stroke: #000000; stroke-width: 0.8"/>
      </g>
     </g>
     <g id="text_15">
      <!-- 30 -->
      <g transform="translate(20.878125 136.847337) scale(0.1 -0.1)">
       <use xlink:href="#DejaVuSans-33"/>
       <use xlink:href="#DejaVuSans-30" x="63.623047"/>
      </g>
     </g>
    </g>
    <g id="ytick_5">
     <g id="line2d_15">
      <g>
       <use xlink:href="#m39f9c862c0" x="40.603125" y="89.575971" style="stroke: #000000; stroke-width: 0.8"/>
      </g>
     </g>
     <g id="text_16">
      <!-- 40 -->
      <g transform="translate(20.878125 93.37519) scale(0.1 -0.1)">
       <use xlink:href="#DejaVuSans-34"/>
       <use xlink:href="#DejaVuSans-30" x="63.623047"/>
      </g>
     </g>
    </g>
    <g id="ytick_6">
     <g id="line2d_16">
      <g>
       <use xlink:href="#m39f9c862c0" x="40.603125" y="46.103824" style="stroke: #000000; stroke-width: 0.8"/>
      </g>
     </g>
     <g id="text_17">
      <!-- 50 -->
      <g transform="translate(20.878125 49.903043) scale(0.1 -0.1)">
       <use xlink:href="#DejaVuSans-35"/>
       <use xlink:href="#DejaVuSans-30" x="63.623047"/>
      </g>
     </g>
    </g>
    <g id="text_18">
     <!-- Edit actions -->
     <g transform="translate(14.798438 169.523187) rotate(-90) scale(0.1 -0.1)">
      <defs>
       <path id="DejaVuSans-45" d="M 628 4666 
L 3578 4666 
L 3578 4134 
L 1259 4134 
L 1259 2753 
L 3481 2753 
L 3481 2222 
L 1259 2222 
L 1259 531 
L 3634 531 
L 3634 0 
L 628 0 
L 628 4666 
z
" transform="scale(0.015625)"/>
       <path id="DejaVuSans-64" d="M 2906 2969 
L 2906 4863 
L 3481 4863 
L 3481 0 
L 2906 0 
L 2906 525 
Q 2725 213 2448 61 
Q 2172 -91 1784 -91 
Q 1150 -91 751 415 
Q 353 922 353 1747 
Q 353 2572 751 3078 
Q 1150 3584 1784 3584 
Q 2172 3584 2448 3432 
Q 2725 3281 2906 2969 
z
M 947 1747 
Q 947 1113 1208 752 
Q 1469 391 1925 391 
Q 2381 391 2643 752 
Q 2906 1113 2906 1747 
Q 2906 2381 2643 2742 
Q 2381 3103 1925 3103 
Q 1469 3103 1208 2742 
Q 947 2381 947 1747 
z
" transform="scale(0.015625)"/>
       <path id="DejaVuSans-63" d="M 3122 3366 
L 3122 2828 
Q 2878 2963 2633 3030 
Q 2388 3097 2138 3097 
Q 1578 3097 1268 2742 
Q 959 2388 959 1747 
Q 959 1106 1268 751 
Q 1578 397 2138 397 
Q 2388 397 2633 464 
Q 2878 531 3122 666 
L 3122 134 
Q 2881 22 2623 -34 
Q 2366 -91 2075 -91 
Q 1284 -91 818 406 
Q 353 903 353 1747 
Q 353 2603 823 3093 
Q 1294 3584 2113 3584 
Q 2378 3584 2631 3529 
Q 2884 3475 3122 3366 
z
" transform="scale(0.015625)"/>
      </defs>
      <use xlink:href="#DejaVuSans-45"/>
      <use xlink:href="#DejaVuSans-64" x="63.183594"/>
      <use xlink:href="#DejaVuSans-69" x="126.660156"/>
      <use xlink:href="#DejaVuSans-74" x="154.443359"/>
      <use xlink:href="#DejaVuSans-20" x="193.652344"/>
      <use xlink:href="#DejaVuSans-61" x="225.439453"/>
      <use xlink:href="#DejaVuSans-63" x="286.71875"/>
      <use xlink:href="#DejaVuSans-74" x="341.699219"/>
      <use xlink:href="#DejaVuSans-69" x="380.908203"/>
      <use xlink:href="#DejaVuSans-6f" x="408.691406"/>
      <use xlink:href="#DejaVuSans-6e" x="469.873047"/>
      <use xlink:href="#DejaVuSans-73" x="533.251953"/>
     </g>
    </g>
   </g>
   <g id="patch_3">
    <path d="M 53.258348 254.656047 
L 62.619746 254.656047 
L 62.619746 250.130971 
L 53.258348 250.130971 
L 53.258348 254.656047 
z
" clip-path="url(#p26a2582305)" style="fill: #008000; stroke: #000000; stroke-width: 0.25; stroke-linejoin: miter"/>
   </g>
   <g id="line2d_17">
    <path d="M 57.939047 254.656047 
L 57.939047 259.117345 
" clip-path="url(#p26a2582305)" style="fill: none; stroke: #008000; stroke-linecap: square"/>
   </g>
   <g id="line2d_18">
    <path d="M 57.939047 250.130971 
L 57.939047 244.463409 
" clip-path="url(#p26a2582305)" style="fill: none; stroke: #008000; stroke-linecap: square"/>
   </g>
   <g id="line2d_19">
    <path d="M 55.598698 259.117345 
L 60.279397 259.117345 
" clip-path="url(#p26a2582305)" style="fill: none; stroke: #008000; stroke-linecap: square"/>
   </g>
   <g id="line2d_20">
    <path d="M 55.598698 244.463409 
L 60.279397 244.463409 
" clip-path="url(#p26a2582305)" style="fill: none; stroke: #008000; stroke-linecap: square"/>
   </g>
   <g id="patch_4">
    <path d="M 87.930193 247.998804 
L 97.291591 247.998804 
L 97.291591 240.452972 
L 87.930193 240.452972 
L 87.930193 247.998804 
z
" clip-path="url(#p26a2582305)" style="fill: #008000; stroke: #000000; stroke-width: 0.25; stroke-linejoin: miter"/>
   </g>
   <g id="line2d_21">
    <path d="M 92.610892 247.998804 
L 92.610892 252.386173 
" clip-path="url(#p26a2582305)" style="fill: none; stroke: #008000; stroke-linecap: square"/>
   </g>
   <g id="line2d_22">
    <path d="M 92.610892 240.452972 
L 92.610892 235.185708 
" clip-path="url(#p26a2582305)" style="fill: none; stroke: #008000; stroke-linecap: square"/>
   </g>
   <g id="line2d_23">
    <path d="M 90.270542 252.386173 
L 94.951242 252.386173 
" clip-path="url(#p26a2582305)" style="fill: none; stroke: #008000; stroke-linecap: square"/>
   </g>
   <g id="line2d_24">
    <path d="M 90.270542 235.185708 
L 94.951242 235.185708 
" clip-path="url(#p26a2582305)" style="fill: none; stroke: #008000; stroke-linecap: square"/>
   </g>
   <g id="patch_5">
    <path d="M 122.602038 242.380546 
L 131.963436 242.380546 
L 131.963436 230.61131 
L 122.602038 230.61131 
L 122.602038 242.380546 
z
" clip-path="url(#p26a2582305)" style="fill: #008000; stroke: #000000; stroke-width: 0.25; stroke-linejoin: miter"/>
   </g>
   <g id="line2d_25">
    <path d="M 127.282737 242.380546 
L 127.282737 247.705906 
" clip-path="url(#p26a2582305)" style="fill: none; stroke: #008000; stroke-linecap: square"/>
   </g>
   <g id="line2d_26">
    <path d="M 127.282737 230.61131 
L 127.282737 224.07033 
" clip-path="url(#p26a2582305)" style="fill: none; stroke: #008000; stroke-linecap: square"/>
   </g>
   <g id="line2d_27">
    <path d="M 124.942387 247.705906 
L 129.623086 247.705906 
" clip-path="url(#p26a2582305)" style="fill: none; stroke: #008000; stroke-linecap: square"/>
   </g>
   <g id="line2d_28">
    <path d="M 124.942387 224.07033 
L 129.623086 224.07033 
" clip-path="url(#p26a2582305)" style="fill: none; stroke: #008000; stroke-linecap: square"/>
   </g>
   <g id="patch_6">
    <path d="M 157.273882 236.002103 
L 166.63528 236.002103 
L 166.63528 222.416918 
L 157.273882 222.416918 
L 157.273882 236.002103 
z
" clip-path="url(#p26a2582305)" style="fill: #008000; stroke: #000000; stroke-width: 0.25; stroke-linejoin: miter"/>
   </g>
   <g id="line2d_29">
    <path d="M 161.954581 236.002103 
L 161.954581 243.582309 
" clip-path="url(#p26a2582305)" style="fill: none; stroke: #008000; stroke-linecap: square"/>
   </g>
   <g id="line2d_30">
    <path d="M 161.954581 222.416918 
L 161.954581 212.627068 
" clip-path="url(#p26a2582305)" style="fill: none; stroke: #008000; stroke-linecap: square"/>
   </g>
   <g id="line2d_31">
    <path d="M 159.614232 243.582309 
L 164.294931 243.582309 
" clip-path="url(#p26a2582305)" style="fill: none; stroke: #008000; stroke-linecap: square"/>
   </g>
   <g id="line2d_32">
    <path d="M 159.614232 212.627068 
L 164.294931 212.627068 
" clip-path="url(#p26a2582305)" style="fill: none; stroke: #008000; stroke-linecap: square"/>
   </g>
   <g id="patch_7">
    <path d="M 191.945727 230.259757 
L 201.307125 230.259757 
L 201.307125 213.069685 
L 191.945727 213.069685 
L 191.945727 230.259757 
z
" clip-path="url(#p26a2582305)" style="fill: #008000; stroke: #000000; stroke-width: 0.25; stroke-linejoin: miter"/>
   </g>
   <g id="line2d_33">
    <path d="M 196.626426 230.259757 
L 196.626426 237.650282 
" clip-path="url(#p26a2582305)" style="fill: none; stroke: #008000; stroke-linecap: square"/>
   </g>
   <g id="line2d_34">
    <path d="M 196.626426 213.069685 
L 196.626426 201.27616 
" clip-path="url(#p26a2582305)" style="fill: none; stroke: #008000; stroke-linecap: square"/>
   </g>
   <g id="line2d_35">
    <path d="M 194.286076 237.650282 
L 198.966775 237.650282 
" clip-path="url(#p26a2582305)" style="fill: none; stroke: #008000; stroke-linecap: square"/>
   </g>
   <g id="line2d_36">
    <path d="M 194.286076 201.27616 
L 198.966775 201.27616 
" clip-path="url(#p26a2582305)" style="fill: none; stroke: #008000; stroke-linecap: square"/>
   </g>
   <g id="patch_8">
    <path d="M 226.617572 224.161237 
L 235.97897 224.161237 
L 235.97897 200.947061 
L 226.617572 200.947061 
L 226.617572 224.161237 
z
" clip-path="url(#p26a2582305)" style="fill: #008000; stroke: #000000; stroke-width: 0.25; stroke-linejoin: miter"/>
   </g>
   <g id="line2d_37">
    <path d="M 231.298271 224.161237 
L 231.298271 231.761701 
" clip-path="url(#p26a2582305)" style="fill: none; stroke: #008000; stroke-linecap: square"/>
   </g>
   <g id="line2d_38">
    <path d="M 231.298271 200.947061 
L 231.298271 177.563597 
" clip-path="url(#p26a2582305)" style="fill: none; stroke: #008000; stroke-linecap: square"/>
   </g>
   <g id="line2d_39">
    <path d="M 228.957921 231.761701 
L 233.63862 231.761701 
" clip-path="url(#p26a2582305)" style="fill: none; stroke: #008000; stroke-linecap: square"/>
   </g>
   <g id="line2d_40">
    <path d="M 228.957921 177.563597 
L 233.63862 177.563597 
" clip-path="url(#p26a2582305)" style="fill: none; stroke: #008000; stroke-linecap: square"/>
   </g>
   <g id="patch_9">
    <path d="M 261.289416 218.747674 
L 270.650814 218.747674 
L 270.650814 187.584261 
L 261.289416 187.584261 
L 261.289416 218.747674 
z
" clip-path="url(#p26a2582305)" style="fill: #008000; stroke: #000000; stroke-width: 0.25; stroke-linejoin: miter"/>
   </g>
   <g id="line2d_41">
    <path d="M 265.970115 218.747674 
L 265.970115 227.651791 
" clip-path="url(#p26a2582305)" style="fill: none; stroke: #008000; stroke-linecap: square"/>
   </g>
   <g id="line2d_42">
    <path d="M 265.970115 187.584261 
L 265.970115 165.080227 
" clip-path="url(#p26a2582305)" style="fill: none; stroke: #008000; stroke-linecap: square"/>
   </g>
   <g id="line2d_43">
    <path d="M 263.629766 227.651791 
L 268.310465 227.651791 
" clip-path="url(#p26a2582305)" style="fill: none; stroke: #008000; stroke-linecap: square"/>
   </g>
   <g id="line2d_44">
    <path d="M 263.629766 165.080227 
L 268.310465 165.080227 
" clip-path="url(#p26a2582305)" style="fill: none; stroke: #008000; stroke-linecap: square"/>
   </g>
   <g id="patch_10">
    <path d="M 295.961261 213.42897 
L 305.322659 213.42897 
L 305.322659 176.473521 
L 295.961261 176.473521 
L 295.961261 213.42897 
z
" clip-path="url(#p26a2582305)" style="fill: #008000; stroke: #000000; stroke-width: 0.25; stroke-linejoin: miter"/>
   </g>
   <g id="line2d_45">
    <path d="M 300.64196 213.42897 
L 300.64196 224.919256 
" clip-path="url(#p26a2582305)" style="fill: none; stroke: #008000; stroke-linecap: square"/>
   </g>
   <g id="line2d_46">
    <path d="M 300.64196 176.473521 
L 300.64196 148.26337 
" clip-path="url(#p26a2582305)" style="fill: none; stroke: #008000; stroke-linecap: square"/>
   </g>
   <g id="line2d_47">
    <path d="M 298.30161 224.919256 
L 302.982309 224.919256 
" clip-path="url(#p26a2582305)" style="fill: none; stroke: #008000; stroke-linecap: square"/>
   </g>
   <g id="line2d_48">
    <path d="M 298.30161 148.26337 
L 302.982309 148.26337 
" clip-path="url(#p26a2582305)" style="fill: none; stroke: #008000; stroke-linecap: square"/>
   </g>
   <g id="patch_11">
    <path d="M 330.633106 208.037572 
L 339.994504 208.037572 
L 339.994504 165.465794 
L 330.633106 165.465794 
L 330.633106 208.037572 
z
" clip-path="url(#p26a2582305)" style="fill: #008000; stroke: #000000; stroke-width: 0.25; stroke-linejoin: miter"/>
   </g>
   <g id="line2d_49">
    <path d="M 335.313805 208.037572 
L 335.313805 221.544989 
" clip-path="url(#p26a2582305)" style="fill: none; stroke: #008000; stroke-linecap: square"/>
   </g>
   <g id="line2d_50">
    <path d="M 335.313805 165.465794 
L 335.313805 105.515758 
" clip-path="url(#p26a2582305)" style="fill: none; stroke: #008000; stroke-linecap: square"/>
   </g>
   <g id="line2d_51">
    <path d="M 332.973455 221.544989 
L 337.654154 221.544989 
" clip-path="url(#p26a2582305)" style="fill: none; stroke: #008000; stroke-linecap: square"/>
   </g>
   <g id="line2d_52">
    <path d="M 332.973455 105.515758 
L 337.654154 105.515758 
" clip-path="url(#p26a2582305)" style="fill: none; stroke: #008000; stroke-linecap: square"/>
   </g>
   <g id="patch_12">
    <path d="M 365.30495 204.120024 
L 374.666348 204.120024 
L 374.666348 159.691275 
L 365.30495 159.691275 
L 365.30495 204.120024 
z
" clip-path="url(#p26a2582305)" style="fill: #008000; stroke: #000000; stroke-width: 0.25; stroke-linejoin: miter"/>
   </g>
   <g id="line2d_53">
    <path d="M 369.985649 204.120024 
L 369.985649 216.4356 
" clip-path="url(#p26a2582305)" style="fill: none; stroke: #008000; stroke-linecap: square"/>
   </g>
   <g id="line2d_54">
    <path d="M 369.985649 159.691275 
L 369.985649 123.168085 
" clip-path="url(#p26a2582305)" style="fill: none; stroke: #008000; stroke-linecap: square"/>
   </g>
   <g id="line2d_55">
    <path d="M 367.6453 216.4356 
L 372.325999 216.4356 
" clip-path="url(#p26a2582305)" style="fill: none; stroke: #008000; stroke-linecap: square"/>
   </g>
   <g id="line2d_56">
    <path d="M 367.6453 123.168085 
L 372.325999 123.168085 
" clip-path="url(#p26a2582305)" style="fill: none; stroke: #008000; stroke-linecap: square"/>
   </g>
   <g id="patch_13">
    <path d="M 63.659902 258.935762 
L 73.0213 258.935762 
L 73.0213 241.327236 
L 63.659902 241.327236 
L 63.659902 258.935762 
z
" clip-path="url(#p26a2582305)" style="fill: #0000ff; stroke: #000000; stroke-width: 0.25; stroke-linejoin: miter"/>
   </g>
   <g id="line2d_57">
    <path d="M 68.340601 258.935762 
L 68.340601 261.216 
" clip-path="url(#p26a2582305)" style="fill: none; stroke: #0000ff; stroke-linecap: square"/>
   </g>
   <g id="line2d_58">
    <path d="M 68.340601 241.327236 
L 68.340601 215.645198 
" clip-path="url(#p26a2582305)" style="fill: none; stroke: #0000ff; stroke-linecap: square"/>
   </g>
   <g id="line2d_59">
    <path d="M 66.000251 261.216 
L 70.68095 261.216 
" clip-path="url(#p26a2582305)" style="fill: none; stroke: #0000ff; stroke-linecap: square"/>
   </g>
   <g id="line2d_60">
    <path d="M 66.000251 215.645198 
L 70.68095 215.645198 
" clip-path="url(#p26a2582305)" style="fill: none; stroke: #0000ff; stroke-linecap: square"/>
   </g>
   <g id="patch_14">
    <path d="M 98.331746 254.257869 
L 107.693144 254.257869 
L 107.693144 228.149625 
L 98.331746 228.149625 
L 98.331746 254.257869 
z
" clip-path="url(#p26a2582305)" style="fill: #0000ff; stroke: #000000; stroke-width: 0.25; stroke-linejoin: miter"/>
   </g>
   <g id="line2d_61">
    <path d="M 103.012445 254.257869 
L 103.012445 254.77013 
" clip-path="url(#p26a2582305)" style="fill: none; stroke: #0000ff; stroke-linecap: square"/>
   </g>
   <g id="line2d_62">
    <path d="M 103.012445 228.149625 
L 103.012445 192.971337 
" clip-path="url(#p26a2582305)" style="fill: none; stroke: #0000ff; stroke-linecap: square"/>
   </g>
   <g id="line2d_63">
    <path d="M 100.672096 254.77013 
L 105.352795 254.77013 
" clip-path="url(#p26a2582305)" style="fill: none; stroke: #0000ff; stroke-linecap: square"/>
   </g>
   <g id="line2d_64">
    <path d="M 100.672096 192.971337 
L 105.352795 192.971337 
" clip-path="url(#p26a2582305)" style="fill: none; stroke: #0000ff; stroke-linecap: square"/>
   </g>
   <g id="patch_15">
    <path d="M 133.003591 249.621113 
L 142.364989 249.621113 
L 142.364989 215.432095 
L 133.003591 215.432095 
L 133.003591 249.621113 
z
" clip-path="url(#p26a2582305)" style="fill: #0000ff; stroke: #000000; stroke-width: 0.25; stroke-linejoin: miter"/>
   </g>
   <g id="line2d_65">
    <path d="M 137.68429 249.621113 
L 137.68429 250.422915 
" clip-path="url(#p26a2582305)" style="fill: none; stroke: #0000ff; stroke-linecap: square"/>
   </g>
   <g id="line2d_66">
    <path d="M 137.68429 215.432095 
L 137.68429 167.097276 
" clip-path="url(#p26a2582305)" style="fill: none; stroke: #0000ff; stroke-linecap: square"/>
   </g>
   <g id="line2d_67">
    <path d="M 135.343941 250.422915 
L 140.02464 250.422915 
" clip-path="url(#p26a2582305)" style="fill: none; stroke: #0000ff; stroke-linecap: square"/>
   </g>
   <g id="line2d_68">
    <path d="M 135.343941 167.097276 
L 140.02464 167.097276 
" clip-path="url(#p26a2582305)" style="fill: none; stroke: #0000ff; stroke-linecap: square"/>
   </g>
   <g id="patch_16">
    <path d="M 167.675436 245.227965 
L 177.036834 245.227965 
L 177.036834 201.010995 
L 167.675436 201.010995 
L 167.675436 245.227965 
z
" clip-path="url(#p26a2582305)" style="fill: #0000ff; stroke: #000000; stroke-width: 0.25; stroke-linejoin: miter"/>
   </g>
   <g id="line2d_69">
    <path d="M 172.356135 245.227965 
L 172.356135 246.075701 
" clip-path="url(#p26a2582305)" style="fill: none; stroke: #0000ff; stroke-linecap: square"/>
   </g>
   <g id="line2d_70">
    <path d="M 172.356135 201.010995 
L 172.356135 179.703047 
" clip-path="url(#p26a2582305)" style="fill: none; stroke: #0000ff; stroke-linecap: square"/>
   </g>
   <g id="line2d_71">
    <path d="M 170.015785 246.075701 
L 174.696484 246.075701 
" clip-path="url(#p26a2582305)" style="fill: none; stroke: #0000ff; stroke-linecap: square"/>
   </g>
   <g id="line2d_72">
    <path d="M 170.015785 179.703047 
L 174.696484 179.703047 
" clip-path="url(#p26a2582305)" style="fill: none; stroke: #0000ff; stroke-linecap: square"/>
   </g>
   <g id="patch_17">
    <path d="M 202.34728 240.823489 
L 211.708678 240.823489 
L 211.708678 194.297249 
L 202.34728 194.297249 
L 202.34728 240.823489 
z
" clip-path="url(#p26a2582305)" style="fill: #0000ff; stroke: #000000; stroke-width: 0.25; stroke-linejoin: miter"/>
   </g>
   <g id="line2d_73">
    <path d="M 207.027979 240.823489 
L 207.027979 241.728486 
" clip-path="url(#p26a2582305)" style="fill: none; stroke: #0000ff; stroke-linecap: square"/>
   </g>
   <g id="line2d_74">
    <path d="M 207.027979 194.297249 
L 207.027979 150.523921 
" clip-path="url(#p26a2582305)" style="fill: none; stroke: #0000ff; stroke-linecap: square"/>
   </g>
   <g id="line2d_75">
    <path d="M 204.68763 241.728486 
L 209.368329 241.728486 
" clip-path="url(#p26a2582305)" style="fill: none; stroke: #0000ff; stroke-linecap: square"/>
   </g>
   <g id="line2d_76">
    <path d="M 204.68763 150.523921 
L 209.368329 150.523921 
" clip-path="url(#p26a2582305)" style="fill: none; stroke: #0000ff; stroke-linecap: square"/>
   </g>
   <g id="patch_18">
    <path d="M 237.019125 236.664554 
L 246.380523 236.664554 
L 246.380523 185.101859 
L 237.019125 185.101859 
L 237.019125 236.664554 
z
" clip-path="url(#p26a2582305)" style="fill: #0000ff; stroke: #000000; stroke-width: 0.25; stroke-linejoin: miter"/>
   </g>
   <g id="line2d_77">
    <path d="M 241.699824 236.664554 
L 241.699824 237.381271 
" clip-path="url(#p26a2582305)" style="fill: none; stroke: #0000ff; stroke-linecap: square"/>
   </g>
   <g id="line2d_78">
    <path d="M 241.699824 185.101859 
L 241.699824 119.028351 
" clip-path="url(#p26a2582305)" style="fill: none; stroke: #0000ff; stroke-linecap: square"/>
   </g>
   <g id="line2d_79">
    <path d="M 239.359475 237.381271 
L 244.040174 237.381271 
" clip-path="url(#p26a2582305)" style="fill: none; stroke: #0000ff; stroke-linecap: square"/>
   </g>
   <g id="line2d_80">
    <path d="M 239.359475 119.028351 
L 244.040174 119.028351 
" clip-path="url(#p26a2582305)" style="fill: none; stroke: #0000ff; stroke-linecap: square"/>
   </g>
   <g id="patch_19">
    <path d="M 271.69097 232.398499 
L 281.052368 232.398499 
L 281.052368 179.922433 
L 271.69097 179.922433 
L 271.69097 232.398499 
z
" clip-path="url(#p26a2582305)" style="fill: #0000ff; stroke: #000000; stroke-width: 0.25; stroke-linejoin: miter"/>
   </g>
   <g id="line2d_81">
    <path d="M 276.371669 232.398499 
L 276.371669 233.034056 
" clip-path="url(#p26a2582305)" style="fill: none; stroke: #0000ff; stroke-linecap: square"/>
   </g>
   <g id="line2d_82">
    <path d="M 276.371669 179.922433 
L 276.371669 172.502385 
" clip-path="url(#p26a2582305)" style="fill: none; stroke: #0000ff; stroke-linecap: square"/>
   </g>
   <g id="line2d_83">
    <path d="M 274.031319 233.034056 
L 278.712018 233.034056 
" clip-path="url(#p26a2582305)" style="fill: none; stroke: #0000ff; stroke-linecap: square"/>
   </g>
   <g id="line2d_84">
    <path d="M 274.031319 172.502385 
L 278.712018 172.502385 
" clip-path="url(#p26a2582305)" style="fill: none; stroke: #0000ff; stroke-linecap: square"/>
   </g>
   <g id="patch_20">
    <path d="M 306.362814 227.989274 
L 315.724212 227.989274 
L 315.724212 164.174175 
L 306.362814 164.174175 
L 306.362814 227.989274 
z
" clip-path="url(#p26a2582305)" style="fill: #0000ff; stroke: #000000; stroke-width: 0.25; stroke-linejoin: miter"/>
   </g>
   <g id="line2d_85">
    <path d="M 311.043513 227.989274 
L 311.043513 228.686842 
" clip-path="url(#p26a2582305)" style="fill: none; stroke: #0000ff; stroke-linecap: square"/>
   </g>
   <g id="line2d_86">
    <path d="M 311.043513 164.174175 
L 311.043513 70.738041 
" clip-path="url(#p26a2582305)" style="fill: none; stroke: #0000ff; stroke-linecap: square"/>
   </g>
   <g id="line2d_87">
    <path d="M 308.703164 228.686842 
L 313.383863 228.686842 
" clip-path="url(#p26a2582305)" style="fill: none; stroke: #0000ff; stroke-linecap: square"/>
   </g>
   <g id="line2d_88">
    <path d="M 308.703164 70.738041 
L 313.383863 70.738041 
" clip-path="url(#p26a2582305)" style="fill: none; stroke: #0000ff; stroke-linecap: square"/>
   </g>
   <g id="patch_21">
    <path d="M 341.034659 223.856603 
L 350.396057 223.856603 
L 350.396057 146.633164 
L 341.034659 146.633164 
L 341.034659 223.856603 
z
" clip-path="url(#p26a2582305)" style="fill: #0000ff; stroke: #000000; stroke-width: 0.25; stroke-linejoin: miter"/>
   </g>
   <g id="line2d_89">
    <path d="M 345.715358 223.856603 
L 345.715358 224.339627 
" clip-path="url(#p26a2582305)" style="fill: none; stroke: #0000ff; stroke-linecap: square"/>
   </g>
   <g id="line2d_90">
    <path d="M 345.715358 146.633164 
L 345.715358 37.93106 
" clip-path="url(#p26a2582305)" style="fill: none; stroke: #0000ff; stroke-linecap: square"/>
   </g>
   <g id="line2d_91">
    <path d="M 343.375008 224.339627 
L 348.055708 224.339627 
" clip-path="url(#p26a2582305)" style="fill: none; stroke: #0000ff; stroke-linecap: square"/>
   </g>
   <g id="line2d_92">
    <path d="M 343.375008 37.93106 
L 348.055708 37.93106 
" clip-path="url(#p26a2582305)" style="fill: none; stroke: #0000ff; stroke-linecap: square"/>
   </g>
   <g id="patch_22">
    <path d="M 375.706504 219.614394 
L 385.067902 219.614394 
L 385.067902 133.54972 
L 375.706504 133.54972 
L 375.706504 219.614394 
z
" clip-path="url(#p26a2582305)" style="fill: #0000ff; stroke: #000000; stroke-width: 0.25; stroke-linejoin: miter"/>
   </g>
   <g id="line2d_93">
    <path d="M 380.387203 219.614394 
L 380.387203 219.992412 
" clip-path="url(#p26a2582305)" style="fill: none; stroke: #0000ff; stroke-linecap: square"/>
   </g>
   <g id="line2d_94">
    <path d="M 380.387203 133.54972 
L 380.387203 19.296 
" clip-path="url(#p26a2582305)" style="fill: none; stroke: #0000ff; stroke-linecap: square"/>
   </g>
   <g id="line2d_95">
    <path d="M 378.046853 219.992412 
L 382.727552 219.992412 
" clip-path="url(#p26a2582305)" style="fill: none; stroke: #0000ff; stroke-linecap: square"/>
   </g>
   <g id="line2d_96">
    <path d="M 378.046853 19.296 
L 382.727552 19.296 
" clip-path="url(#p26a2582305)" style="fill: none; stroke: #0000ff; stroke-linecap: square"/>
   </g>
   <g id="line2d_97">
    <path d="M 53.258348 252.917055 
L 62.619746 252.917055 
" clip-path="url(#p26a2582305)" style="fill: none; stroke: #ffffff"/>
   </g>
   <g id="line2d_98">
    <defs>
     <path id="m458f1afdfb" d="M 0 -3 
L -3 3 
L 3 3 
z
" style="stroke: #000000; stroke-linejoin: miter"/>
    </defs>
    <g clip-path="url(#p26a2582305)">
     <use xlink:href="#m458f1afdfb" x="57.939047" y="250.782035" style="fill: #008000; stroke: #000000; stroke-linejoin: miter"/>
    </g>
   </g>
   <g id="line2d_99">
    <path d="M 87.930193 245.778782 
L 97.291591 245.778782 
" clip-path="url(#p26a2582305)" style="fill: none; stroke: #ffffff"/>
   </g>
   <g id="line2d_100">
    <g clip-path="url(#p26a2582305)">
     <use xlink:href="#m458f1afdfb" x="92.610892" y="241.663393" style="fill: #008000; stroke: #000000; stroke-linejoin: miter"/>
    </g>
   </g>
   <g id="line2d_101">
    <path d="M 122.602038 239.440412 
L 131.963436 239.440412 
" clip-path="url(#p26a2582305)" style="fill: none; stroke: #ffffff"/>
   </g>
   <g id="line2d_102">
    <g clip-path="url(#p26a2582305)">
     <use xlink:href="#m458f1afdfb" x="127.282737" y="232.307863" style="fill: #008000; stroke: #000000; stroke-linejoin: miter"/>
    </g>
   </g>
   <g id="line2d_103">
    <path d="M 157.273882 231.90496 
L 166.63528 231.90496 
" clip-path="url(#p26a2582305)" style="fill: none; stroke: #ffffff"/>
   </g>
   <g id="line2d_104">
    <g clip-path="url(#p26a2582305)">
     <use xlink:href="#m458f1afdfb" x="161.954581" y="223.584184" style="fill: #008000; stroke: #000000; stroke-linejoin: miter"/>
    </g>
   </g>
   <g id="line2d_105">
    <path d="M 191.945727 224.352174 
L 201.307125 224.352174 
" clip-path="url(#p26a2582305)" style="fill: none; stroke: #ffffff"/>
   </g>
   <g id="line2d_106">
    <g clip-path="url(#p26a2582305)">
     <use xlink:href="#m458f1afdfb" x="196.626426" y="213.790281" style="fill: #008000; stroke: #000000; stroke-linejoin: miter"/>
    </g>
   </g>
   <g id="line2d_107">
    <path d="M 226.617572 217.290882 
L 235.97897 217.290882 
" clip-path="url(#p26a2582305)" style="fill: none; stroke: #ffffff"/>
   </g>
   <g id="line2d_108">
    <g clip-path="url(#p26a2582305)">
     <use xlink:href="#m458f1afdfb" x="231.298271" y="203.463396" style="fill: #008000; stroke: #000000; stroke-linejoin: miter"/>
    </g>
   </g>
   <g id="line2d_109">
    <path d="M 261.289416 212.047287 
L 270.650814 212.047287 
" clip-path="url(#p26a2582305)" style="fill: none; stroke: #ffffff"/>
   </g>
   <g id="line2d_110">
    <g clip-path="url(#p26a2582305)">
     <use xlink:href="#m458f1afdfb" x="265.970115" y="193.525968" style="fill: #008000; stroke: #000000; stroke-linejoin: miter"/>
    </g>
   </g>
   <g id="line2d_111">
    <path d="M 295.961261 204.012651 
L 305.322659 204.012651 
" clip-path="url(#p26a2582305)" style="fill: none; stroke: #ffffff"/>
   </g>
   <g id="line2d_112">
    <g clip-path="url(#p26a2582305)">
     <use xlink:href="#m458f1afdfb" x="300.64196" y="183.800559" style="fill: #008000; stroke: #000000; stroke-linejoin: miter"/>
    </g>
   </g>
   <g id="line2d_113">
    <path d="M 330.633106 196.322941 
L 339.994504 196.322941 
" clip-path="url(#p26a2582305)" style="fill: none; stroke: #ffffff"/>
   </g>
   <g id="line2d_114">
    <g clip-path="url(#p26a2582305)">
     <use xlink:href="#m458f1afdfb" x="335.313805" y="172.8422" style="fill: #008000; stroke: #000000; stroke-linejoin: miter"/>
    </g>
   </g>
   <g id="line2d_115">
    <path d="M 365.30495 189.960736 
L 374.666348 189.960736 
" clip-path="url(#p26a2582305)" style="fill: none; stroke: #ffffff"/>
   </g>
   <g id="line2d_116">
    <g clip-path="url(#p26a2582305)">
     <use xlink:href="#m458f1afdfb" x="369.985649" y="164.384895" style="fill: #008000; stroke: #000000; stroke-linejoin: miter"/>
    </g>
   </g>
   <g id="line2d_117">
    <path d="M 63.659902 255.413351 
L 73.0213 255.413351 
" clip-path="url(#p26a2582305)" style="fill: none; stroke: #ffffff"/>
   </g>
   <g id="line2d_118">
    <defs>
     <path id="mb18027ca84" d="M 0 -3 
L -3 3 
L 3 3 
z
" style="stroke: #000000; stroke-linejoin: miter"/>
    </defs>
    <g clip-path="url(#p26a2582305)">
     <use xlink:href="#mb18027ca84" x="68.340601" y="236.147445" style="fill: #0000ff; stroke: #000000; stroke-linejoin: miter"/>
    </g>
   </g>
   <g id="line2d_119">
    <path d="M 98.331746 247.583405 
L 107.693144 247.583405 
" clip-path="url(#p26a2582305)" style="fill: none; stroke: #ffffff"/>
   </g>
   <g id="line2d_120">
    <g clip-path="url(#p26a2582305)">
     <use xlink:href="#mb18027ca84" x="103.012445" y="203.631123" style="fill: #0000ff; stroke: #000000; stroke-linejoin: miter"/>
    </g>
   </g>
   <g id="line2d_121">
    <path d="M 133.003591 243.196492 
L 142.364989 243.196492 
" clip-path="url(#p26a2582305)" style="fill: none; stroke: #ffffff"/>
   </g>
   <g id="line2d_122">
    <g clip-path="url(#p26a2582305)">
     <use xlink:href="#mb18027ca84" x="137.68429" y="178.956905" style="fill: #0000ff; stroke: #000000; stroke-linejoin: miter"/>
    </g>
   </g>
   <g id="line2d_123">
    <path d="M 167.675436 235.927482 
L 177.036834 235.927482 
" clip-path="url(#p26a2582305)" style="fill: none; stroke: #ffffff"/>
   </g>
   <g id="line2d_124">
    <g clip-path="url(#p26a2582305)">
     <use xlink:href="#mb18027ca84" x="172.356135" y="151.707907" style="fill: #0000ff; stroke: #000000; stroke-linejoin: miter"/>
    </g>
   </g>
   <g id="line2d_125">
    <path d="M 202.34728 228.792785 
L 211.708678 228.792785 
" clip-path="url(#p26a2582305)" style="fill: none; stroke: #ffffff"/>
   </g>
   <g id="line2d_126">
    <g clip-path="url(#p26a2582305)">
     <use xlink:href="#mb18027ca84" x="207.027979" y="117.650208" style="fill: #0000ff; stroke: #000000; stroke-linejoin: miter"/>
    </g>
   </g>
   <g id="line2d_127">
    <path d="M 237.019125 221.251017 
L 246.380523 221.251017 
" clip-path="url(#p26a2582305)" style="fill: none; stroke: #ffffff"/>
   </g>
   <g id="line2d_128">
    <g clip-path="url(#p26a2582305)">
     <use xlink:href="#mb18027ca84" x="241.699824" y="89.20082" style="fill: #0000ff; stroke: #000000; stroke-linejoin: miter"/>
    </g>
   </g>
   <g id="line2d_129">
    <path d="M 271.69097 219.907173 
L 281.052368 219.907173 
" clip-path="url(#p26a2582305)" style="fill: none; stroke: #ffffff"/>
   </g>
   <g id="line2d_130">
    <g clip-path="url(#p26a2582305)">
     <use xlink:href="#mb18027ca84" x="276.371669" y="108.866356" style="fill: #0000ff; stroke: #000000; stroke-linejoin: miter"/>
    </g>
   </g>
   <g id="line2d_131">
    <path d="M 306.362814 213.790386 
L 315.724212 213.790386 
" clip-path="url(#p26a2582305)" style="fill: none; stroke: #ffffff"/>
   </g>
   <g id="line2d_132">
    <g clip-path="url(#p26a2582305)">
     <use xlink:href="#mb18027ca84" x="311.043513" y="79.850908" style="fill: #0000ff; stroke: #000000; stroke-linejoin: miter"/>
    </g>
   </g>
   <g id="line2d_133">
    <path d="M 341.034659 209.124376 
L 350.396057 209.124376 
" clip-path="url(#p26a2582305)" style="fill: none; stroke: #ffffff"/>
   </g>
   <g id="line2d_134">
    <g clip-path="url(#p26a2582305)">
     <use xlink:href="#mb18027ca84" x="345.715358" y="68.179531" style="fill: #0000ff; stroke: #000000; stroke-linejoin: miter"/>
    </g>
   </g>
   <g id="line2d_135">
    <path d="M 375.706504 204.411638 
L 385.067902 204.411638 
" clip-path="url(#p26a2582305)" style="fill: none; stroke: #ffffff"/>
   </g>
   <g id="line2d_136">
    <g clip-path="url(#p26a2582305)">
     <use xlink:href="#mb18027ca84" x="380.387203" y="44.084416" style="fill: #0000ff; stroke: #000000; stroke-linejoin: miter"/>
    </g>
   </g>
   <g id="patch_23">
    <path d="M 40.603125 273.312 
L 40.603125 7.2 
" style="fill: none; stroke: #000000; stroke-width: 0.8; stroke-linejoin: miter; stroke-linecap: square"/>
   </g>
   <g id="patch_24">
    <path d="M 397.723125 273.312 
L 397.723125 7.2 
" style="fill: none; stroke: #000000; stroke-width: 0.8; stroke-linejoin: miter; stroke-linecap: square"/>
   </g>
   <g id="patch_25">
    <path d="M 40.603125 273.312 
L 397.723125 273.312 
" style="fill: none; stroke: #000000; stroke-width: 0.8; stroke-linejoin: miter; stroke-linecap: square"/>
   </g>
   <g id="patch_26">
    <path d="M 40.603125 7.2 
L 397.723125 7.2 
" style="fill: none; stroke: #000000; stroke-width: 0.8; stroke-linejoin: miter; stroke-linecap: square"/>
   </g>
   <g id="legend_1">
    <g id="patch_27">
     <path d="M 47.603125 44.55625 
L 124.401563 44.55625 
Q 126.401563 44.55625 126.401563 42.55625 
L 126.401563 14.2 
Q 126.401563 12.2 124.401563 12.2 
L 47.603125 12.2 
Q 45.603125 12.2 45.603125 14.2 
L 45.603125 42.55625 
Q 45.603125 44.55625 47.603125 44.55625 
z
" style="fill: #ffffff; opacity: 0.8; stroke: #cccccc; stroke-linejoin: miter"/>
    </g>
    <g id="patch_28">
     <path d="M 49.603125 23.798437 
L 69.603125 23.798437 
L 69.603125 16.798437 
L 49.603125 16.798437 
z
" style="fill: #008000; stroke: #008000; stroke-linejoin: miter"/>
    </g>
    <g id="text_19">
     <!-- Gumtree -->
     <g transform="translate(77.603125 23.798437) scale(0.1 -0.1)">
      <defs>
       <path id="DejaVuSans-47" d="M 3809 666 
L 3809 1919 
L 2778 1919 
L 2778 2438 
L 4434 2438 
L 4434 434 
Q 4069 175 3628 42 
Q 3188 -91 2688 -91 
Q 1594 -91 976 548 
Q 359 1188 359 2328 
Q 359 3472 976 4111 
Q 1594 4750 2688 4750 
Q 3144 4750 3555 4637 
Q 3966 4525 4313 4306 
L 4313 3634 
Q 3963 3931 3569 4081 
Q 3175 4231 2741 4231 
Q 1884 4231 1454 3753 
Q 1025 3275 1025 2328 
Q 1025 1384 1454 906 
Q 1884 428 2741 428 
Q 3075 428 3337 486 
Q 3600 544 3809 666 
z
" transform="scale(0.015625)"/>
      </defs>
      <use xlink:href="#DejaVuSans-47"/>
      <use xlink:href="#DejaVuSans-75" x="77.490234"/>
      <use xlink:href="#DejaVuSans-6d" x="140.869141"/>
      <use xlink:href="#DejaVuSans-74" x="238.28125"/>
      <use xlink:href="#DejaVuSans-72" x="277.490234"/>
      <use xlink:href="#DejaVuSans-65" x="316.353516"/>
      <use xlink:href="#DejaVuSans-65" x="377.876953"/>
     </g>
    </g>
    <g id="patch_29">
     <path d="M 49.603125 38.476562 
L 69.603125 38.476562 
L 69.603125 31.476562 
L 49.603125 31.476562 
z
" style="fill: #0000ff; stroke: #0000ff; stroke-linejoin: miter"/>
    </g>
    <g id="text_20">
     <!-- Difftastic -->
     <g transform="translate(77.603125 38.476562) scale(0.1 -0.1)">
      <defs>
       <path id="DejaVuSans-44" d="M 1259 4147 
L 1259 519 
L 2022 519 
Q 2988 519 3436 956 
Q 3884 1394 3884 2338 
Q 3884 3275 3436 3711 
Q 2988 4147 2022 4147 
L 1259 4147 
z
M 628 4666 
L 1925 4666 
Q 3281 4666 3915 4102 
Q 4550 3538 4550 2338 
Q 4550 1131 3912 565 
Q 3275 0 1925 0 
L 628 0 
L 628 4666 
z
" transform="scale(0.015625)"/>
      </defs>
      <use xlink:href="#DejaVuSans-44"/>
      <use xlink:href="#DejaVuSans-69" x="77.001953"/>
      <use xlink:href="#DejaVuSans-66" x="104.785156"/>
      <use xlink:href="#DejaVuSans-66" x="139.990234"/>
      <use xlink:href="#DejaVuSans-74" x="173.445312"/>
      <use xlink:href="#DejaVuSans-61" x="212.654297"/>
      <use xlink:href="#DejaVuSans-73" x="273.933594"/>
      <use xlink:href="#DejaVuSans-74" x="326.033203"/>
      <use xlink:href="#DejaVuSans-69" x="365.242188"/>
      <use xlink:href="#DejaVuSans-63" x="393.025391"/>
     </g>
    </g>
   </g>
  </g>
 </g>
 <defs>
  <clipPath id="p26a2582305">
   <rect x="40.603125" y="7.2" width="357.12" height="266.112"/>
  </clipPath>
 </defs>
</svg>
