<?xml version="1.0" encoding="utf-8" standalone="no"?>
<!DOCTYPE svg PUBLIC "-//W3C//DTD SVG 1.1//EN"
  "http://www.w3.org/Graphics/SVG/1.1/DTD/svg11.dtd">
<svg xmlns:xlink="http://www.w3.org/1999/xlink" width="432pt" height="288pt" viewBox="0 0 432 288" xmlns="http://www.w3.org/2000/svg" version="1.1">
 <metadata>
  <rdf:RDF xmlns:dc="http://purl.org/dc/elements/1.1/" xmlns:cc="http://creativecommons.org/ns#" xmlns:rdf="http://www.w3.org/1999/02/22-rdf-syntax-ns#">
   <cc:Work>
    <dc:type rdf:resource="http://purl.org/dc/dcmitype/StillImage"/>
    <dc:date>2024-09-09T15:55:51.134444</dc:date>
    <dc:format>image/svg+xml</dc:format>
    <dc:creator>
     <cc:Agent>
      <dc:title>Matplotlib v3.9.0, https://matplotlib.org/</dc:title>
     </cc:Agent>
    </dc:creator>
   </cc:Work>
  </rdf:RDF>
 </metadata>
 <defs>
  <style type="text/css">*{stroke-linejoin: round; stroke-linecap: butt}</style>
 </defs>
 <g id="figure_1">
  <g id="patch_1">
   <path d="M 0 288 
L 432 288 
L 432 0 
L 0 0 
z
" style="fill: #ffffff"/>
  </g>
  <g id="axes_1">
   <g id="patch_2">
    <path d="M 58.43 243.16 
L 409.815 243.16 
L 409.815 10.8 
L 58.43 10.8 
z
" style="fill: #ffffff"/>
   </g>
   <g id="PolyCollection_1">
    <path d="M -393.255024 242.84553 
L -393.255024 243.16 
L -303.482541 243.16 
L -213.710059 243.16 
L -123.937577 243.16 
L -34.165094 243.16 
L 55.607388 243.16 
L 145.379871 243.16 
L 235.152353 243.16 
L 324.924835 243.16 
L 414.697318 243.16 
L 504.4698 243.16 
L 594.242283 243.16 
L 684.014765 243.16 
L 773.787247 243.16 
L 863.55973 243.16 
L 953.332212 243.16 
L 1043.104695 243.16 
L 1132.877177 243.16 
L 1222.649659 243.16 
L 1312.422142 243.16 
L 1402.194624 243.16 
L 1491.967107 243.16 
L 1581.739589 243.16 
L 1671.512071 243.16 
L 1761.284554 243.16 
L 1851.057036 243.16 
L 1940.829519 243.16 
L 2030.602001 243.16 
L 2120.374483 243.16 
L 2210.146966 243.16 
L 2299.919448 243.16 
L 2389.691931 243.16 
L 2479.464413 243.16 
L 2569.236895 243.16 
L 2659.009378 243.16 
L 2748.78186 243.16 
L 2838.554343 243.16 
L 2928.326825 243.16 
L 3018.099307 243.16 
L 3107.87179 243.16 
L 3197.644272 243.16 
L 3287.416755 243.16 
L 3377.189237 243.16 
L 3466.961719 243.16 
L 3556.734202 243.16 
L 3646.506684 243.16 
L 3736.279167 243.16 
L 3826.051649 243.16 
L 3915.824131 243.16 
L 4005.596614 243.16 
L 4095.369096 243.16 
L 4185.141579 243.16 
L 4274.914061 243.16 
L 4364.686543 243.16 
L 4454.459026 243.16 
L 4544.231508 243.16 
L 4634.003991 243.16 
L 4723.776473 243.16 
L 4813.548955 243.16 
L 4903.321438 243.16 
L 4993.09392 243.16 
L 5082.866403 243.16 
L 5172.638885 243.16 
L 5262.411367 243.16 
L 5352.18385 243.16 
L 5441.956332 243.16 
L 5531.728815 243.16 
L 5621.501297 243.16 
L 5711.273779 243.16 
L 5801.046262 243.16 
L 5890.818744 243.16 
L 5980.591227 243.16 
L 6070.363709 243.16 
L 6160.136191 243.16 
L 6249.908674 243.16 
L 6339.681156 243.16 
L 6429.453639 243.16 
L 6519.226121 243.16 
L 6608.998603 243.16 
L 6698.771086 243.16 
L 6788.543568 243.16 
L 6878.316051 243.16 
L 6968.088533 243.16 
L 7057.861015 243.16 
L 7147.633498 243.16 
L 7237.40598 243.16 
L 7327.178463 243.16 
L 7416.950945 243.16 
L 7506.723427 243.16 
L 7596.49591 243.16 
L 7686.268392 243.16 
L 7776.040875 243.16 
L 7865.813357 243.16 
L 7955.585839 243.16 
L 8045.358322 243.16 
L 8135.130804 243.16 
L 8224.903287 243.16 
L 8314.675769 243.16 
L 8404.448251 243.16 
L 8494.220734 243.16 
L 8583.993216 243.16 
L 8673.765699 243.16 
L 8763.538181 243.16 
L 8853.310663 243.16 
L 8943.083146 243.16 
L 9032.855628 243.16 
L 9122.628111 243.16 
L 9212.400593 243.16 
L 9302.173075 243.16 
L 9391.945558 243.16 
L 9481.71804 243.16 
L 9571.490523 243.16 
L 9661.263005 243.16 
L 9751.035487 243.16 
L 9840.80797 243.16 
L 9930.580452 243.16 
L 10020.352935 243.16 
L 10110.125417 243.16 
L 10199.897899 243.16 
L 10289.670382 243.16 
L 10379.442864 243.16 
L 10469.215347 243.16 
L 10558.987829 243.16 
L 10648.760311 243.16 
L 10738.532794 243.16 
L 10828.305276 243.16 
L 10918.077759 243.16 
L 11007.850241 243.16 
L 11097.622723 243.16 
L 11187.395206 243.16 
L 11277.167688 243.16 
L 11366.940171 243.16 
L 11456.712653 243.16 
L 11546.485135 243.16 
L 11636.257618 243.16 
L 11726.0301 243.16 
L 11815.802583 243.16 
L 11905.575065 243.16 
L 11995.347547 243.16 
L 12085.12003 243.16 
L 12174.892512 243.16 
L 12264.664995 243.16 
L 12354.437477 243.16 
L 12444.209959 243.16 
L 12533.982442 243.16 
L 12623.754924 243.16 
L 12713.527407 243.16 
L 12803.299889 243.16 
L 12893.072371 243.16 
L 12982.844854 243.16 
L 13072.617336 243.16 
L 13162.389819 243.16 
L 13252.162301 243.16 
L 13341.934783 243.16 
L 13431.707266 243.16 
L 13521.479748 243.16 
L 13611.252231 243.16 
L 13701.024713 243.16 
L 13790.797195 243.16 
L 13880.569678 243.16 
L 13970.34216 243.16 
L 14060.114643 243.16 
L 14149.887125 243.16 
L 14239.659607 243.16 
L 14329.43209 243.16 
L 14419.204572 243.16 
L 14508.977055 243.16 
L 14598.749537 243.16 
L 14688.522019 243.16 
L 14778.294502 243.16 
L 14868.066984 243.16 
L 14957.839467 243.16 
L 15047.611949 243.16 
L 15137.384431 243.16 
L 15227.156914 243.16 
L 15316.929396 243.16 
L 15406.701879 243.16 
L 15496.474361 243.16 
L 15586.246843 243.16 
L 15676.019326 243.16 
L 15765.791808 243.16 
L 15855.564291 243.16 
L 15945.336773 243.16 
L 16035.109255 243.16 
L 16124.881738 243.16 
L 16214.65422 243.16 
L 16304.426703 243.16 
L 16394.199185 243.16 
L 16483.971667 243.16 
L 16573.74415 243.16 
L 16663.516632 243.16 
L 16753.289115 243.16 
L 16843.061597 243.16 
L 16932.834079 243.16 
L 17022.606562 243.16 
L 17112.379044 243.16 
L 17202.151527 243.16 
L 17291.924009 243.16 
L 17381.696491 243.16 
L 17471.468974 243.16 
L 17471.468974 243.159999 
L 17471.468974 243.159999 
L 17381.696491 243.159993 
L 17291.924009 243.159975 
L 17202.151527 243.159938 
L 17112.379044 243.159893 
L 17022.606562 243.159869 
L 16932.834079 243.159887 
L 16843.061597 243.159932 
L 16753.289115 243.159971 
L 16663.516632 243.159991 
L 16573.74415 243.159998 
L 16483.971667 243.16 
L 16394.199185 243.16 
L 16304.426703 243.16 
L 16214.65422 243.16 
L 16124.881738 243.16 
L 16035.109255 243.16 
L 15945.336773 243.16 
L 15855.564291 243.16 
L 15765.791808 243.16 
L 15676.019326 243.16 
L 15586.246843 243.16 
L 15496.474361 243.16 
L 15406.701879 243.16 
L 15316.929396 243.16 
L 15227.156914 243.16 
L 15137.384431 243.16 
L 15047.611949 243.16 
L 14957.839467 243.16 
L 14868.066984 243.16 
L 14778.294502 243.16 
L 14688.522019 243.16 
L 14598.749537 243.16 
L 14508.977055 243.16 
L 14419.204572 243.16 
L 14329.43209 243.16 
L 14239.659607 243.16 
L 14149.887125 243.16 
L 14060.114643 243.16 
L 13970.34216 243.16 
L 13880.569678 243.16 
L 13790.797195 243.16 
L 13701.024713 243.16 
L 13611.252231 243.16 
L 13521.479748 243.16 
L 13431.707266 243.16 
L 13341.934783 243.16 
L 13252.162301 243.16 
L 13162.389819 243.16 
L 13072.617336 243.16 
L 12982.844854 243.16 
L 12893.072371 243.16 
L 12803.299889 243.16 
L 12713.527407 243.16 
L 12623.754924 243.16 
L 12533.982442 243.16 
L 12444.209959 243.16 
L 12354.437477 243.16 
L 12264.664995 243.16 
L 12174.892512 243.16 
L 12085.12003 243.16 
L 11995.347547 243.16 
L 11905.575065 243.16 
L 11815.802583 243.16 
L 11726.0301 243.16 
L 11636.257618 243.16 
L 11546.485135 243.16 
L 11456.712653 243.16 
L 11366.940171 243.16 
L 11277.167688 243.16 
L 11187.395206 243.16 
L 11097.622723 243.16 
L 11007.850241 243.16 
L 10918.077759 243.16 
L 10828.305276 243.16 
L 10738.532794 243.16 
L 10648.760311 243.16 
L 10558.987829 243.16 
L 10469.215347 243.16 
L 10379.442864 243.16 
L 10289.670382 243.16 
L 10199.897899 243.16 
L 10110.125417 243.16 
L 10020.352935 243.16 
L 9930.580452 243.16 
L 9840.80797 243.16 
L 9751.035487 243.16 
L 9661.263005 243.16 
L 9571.490523 243.16 
L 9481.71804 243.16 
L 9391.945558 243.159999 
L 9302.173075 243.159992 
L 9212.400593 243.159971 
L 9122.628111 243.159921 
L 9032.855628 243.159845 
L 8943.083146 243.159771 
L 8853.310663 243.159738 
L 8763.538181 243.159738 
L 8673.765699 243.159712 
L 8583.993216 243.159625 
L 8494.220734 243.159518 
L 8404.448251 243.159456 
L 8314.675769 243.159451 
L 8224.903287 243.159467 
L 8135.130804 243.159482 
L 8045.358322 243.159521 
L 7955.585839 243.159615 
L 7865.813357 243.159735 
L 7776.040875 243.159803 
L 7686.268392 243.159781 
L 7596.49591 243.159715 
L 7506.723427 243.159669 
L 7416.950945 243.159649 
L 7327.178463 243.159627 
L 7237.40598 243.159596 
L 7147.633498 243.159557 
L 7057.861015 243.159509 
L 6968.088533 243.159492 
L 6878.316051 243.159558 
L 6788.543568 243.159699 
L 6698.771086 243.159841 
L 6608.998603 243.159918 
L 6519.226121 243.159922 
L 6429.453639 243.159888 
L 6339.681156 243.159859 
L 6249.908674 243.159844 
L 6160.136191 243.159791 
L 6070.363709 243.159636 
L 5980.591227 243.159399 
L 5890.818744 243.159194 
L 5801.046262 243.159115 
L 5711.273779 243.15914 
L 5621.501297 243.159177 
L 5531.728815 243.159156 
L 5441.956332 243.159076 
L 5352.18385 243.158978 
L 5262.411367 243.158903 
L 5172.638885 243.158881 
L 5082.866403 243.158931 
L 4993.09392 243.159043 
L 4903.321438 243.159177 
L 4813.548955 243.159291 
L 4723.776473 243.159331 
L 4634.003991 243.159201 
L 4544.231508 243.158819 
L 4454.459026 243.158221 
L 4364.686543 243.157538 
L 4274.914061 243.156869 
L 4185.141579 243.156267 
L 4095.369096 243.155771 
L 4005.596614 243.155302 
L 3915.824131 243.154724 
L 3826.051649 243.154145 
L 3736.279167 243.153852 
L 3646.506684 243.153829 
L 3556.734202 243.153708 
L 3466.961719 243.153323 
L 3377.189237 243.15294 
L 3287.416755 243.152737 
L 3197.644272 243.152434 
L 3107.87179 243.151748 
L 3018.099307 243.150833 
L 2928.326825 243.149804 
L 2838.554343 243.148326 
L 2748.78186 243.146319 
L 2659.009378 243.144432 
L 2569.236895 243.143092 
L 2479.464413 243.141807 
L 2389.691931 243.139955 
L 2299.919448 243.137578 
L 2210.146966 243.134989 
L 2120.374483 243.132152 
L 2030.602001 243.128802 
L 1940.829519 243.1248 
L 1851.057036 243.120131 
L 1761.284554 243.11455 
L 1671.512071 243.107275 
L 1581.739589 243.097246 
L 1491.967107 243.083587 
L 1402.194624 243.065633 
L 1312.422142 243.042866 
L 1222.649659 243.014503 
L 1132.877177 242.978247 
L 1043.104695 242.929621 
L 953.332212 242.862207 
L 863.55973 242.764151 
L 773.787247 242.605046 
L 684.014765 242.3071 
L 594.242283 241.670442 
L 504.4698 240.146361 
L 414.697318 236.404377 
L 324.924835 228.478664 
L 235.152353 216.303405 
L 145.379871 205.307212 
L 55.607388 203.820698 
L -34.165094 213.630154 
L -123.937577 227.309318 
L -213.710059 237.107422 
L -303.482541 241.520559 
L -393.255024 242.84553 
z
" clip-path="url(#p3de2503a9e)" style="fill: #0000ff; fill-opacity: 0.25; stroke-dasharray: 3.7,1.6; stroke-dashoffset: 0; stroke: #0000ff"/>
   </g>
   <g id="PolyCollection_2">
    <path d="M -14.045146 242.594904 
L -14.045146 243.16 
L -8.761108 243.16 
L -3.47707 243.16 
L 1.806969 243.16 
L 7.091007 243.16 
L 12.375045 243.16 
L 17.659083 243.16 
L 22.943121 243.16 
L 28.227159 243.16 
L 33.511197 243.16 
L 38.795236 243.16 
L 44.079274 243.16 
L 49.363312 243.16 
L 54.64735 243.16 
L 59.931388 243.16 
L 65.215426 243.16 
L 70.499465 243.16 
L 75.783503 243.16 
L 81.067541 243.16 
L 86.351579 243.16 
L 91.635617 243.16 
L 96.919655 243.16 
L 102.203693 243.16 
L 107.487732 243.16 
L 112.77177 243.16 
L 118.055808 243.16 
L 123.339846 243.16 
L 128.623884 243.16 
L 133.907922 243.16 
L 139.19196 243.16 
L 144.475999 243.16 
L 149.760037 243.16 
L 155.044075 243.16 
L 160.328113 243.16 
L 165.612151 243.16 
L 170.896189 243.16 
L 176.180228 243.16 
L 181.464266 243.16 
L 186.748304 243.16 
L 192.032342 243.16 
L 197.31638 243.16 
L 202.600418 243.16 
L 207.884456 243.16 
L 213.168495 243.16 
L 218.452533 243.16 
L 223.736571 243.16 
L 229.020609 243.16 
L 234.304647 243.16 
L 239.588685 243.16 
L 244.872723 243.16 
L 250.156762 243.16 
L 255.4408 243.16 
L 260.724838 243.16 
L 266.008876 243.16 
L 271.292914 243.16 
L 276.576952 243.16 
L 281.860991 243.16 
L 287.145029 243.16 
L 292.429067 243.16 
L 297.713105 243.16 
L 302.997143 243.16 
L 308.281181 243.16 
L 313.565219 243.16 
L 318.849258 243.16 
L 324.133296 243.16 
L 329.417334 243.16 
L 334.701372 243.16 
L 339.98541 243.16 
L 345.269448 243.16 
L 350.553486 243.16 
L 355.837525 243.16 
L 361.121563 243.16 
L 366.405601 243.16 
L 371.689639 243.16 
L 376.973677 243.16 
L 382.257715 243.16 
L 387.541753 243.16 
L 392.825792 243.16 
L 398.10983 243.16 
L 403.393868 243.16 
L 408.677906 243.16 
L 413.961944 243.16 
L 419.245982 243.16 
L 424.530021 243.16 
L 429.814059 243.16 
L 435.098097 243.16 
L 440.382135 243.16 
L 445.666173 243.16 
L 450.950211 243.16 
L 456.234249 243.16 
L 461.518288 243.16 
L 466.802326 243.16 
L 472.086364 243.16 
L 477.370402 243.16 
L 482.65444 243.16 
L 487.938478 243.16 
L 493.222516 243.16 
L 498.506555 243.16 
L 503.790593 243.16 
L 509.074631 243.16 
L 514.358669 243.16 
L 519.642707 243.16 
L 524.926745 243.16 
L 530.210784 243.16 
L 535.494822 243.16 
L 540.77886 243.16 
L 546.062898 243.16 
L 551.346936 243.16 
L 556.630974 243.16 
L 561.915012 243.16 
L 567.199051 243.16 
L 572.483089 243.16 
L 577.767127 243.16 
L 583.051165 243.16 
L 588.335203 243.16 
L 593.619241 243.16 
L 598.903279 243.16 
L 604.187318 243.16 
L 609.471356 243.16 
L 614.755394 243.16 
L 620.039432 243.16 
L 625.32347 243.16 
L 630.607508 243.16 
L 635.891547 243.16 
L 641.175585 243.16 
L 646.459623 243.16 
L 651.743661 243.16 
L 657.027699 243.16 
L 662.311737 243.16 
L 667.595775 243.16 
L 672.879814 243.16 
L 678.163852 243.16 
L 683.44789 243.16 
L 688.731928 243.16 
L 694.015966 243.16 
L 699.300004 243.16 
L 704.584042 243.16 
L 709.868081 243.16 
L 715.152119 243.16 
L 720.436157 243.16 
L 725.720195 243.16 
L 731.004233 243.16 
L 736.288271 243.16 
L 741.572309 243.16 
L 746.856348 243.16 
L 752.140386 243.16 
L 757.424424 243.16 
L 762.708462 243.16 
L 767.9925 243.16 
L 773.276538 243.16 
L 778.560577 243.16 
L 783.844615 243.16 
L 789.128653 243.16 
L 794.412691 243.16 
L 799.696729 243.16 
L 804.980767 243.16 
L 810.264805 243.16 
L 815.548844 243.16 
L 820.832882 243.16 
L 826.11692 243.16 
L 831.400958 243.16 
L 836.684996 243.16 
L 841.969034 243.16 
L 847.253072 243.16 
L 852.537111 243.16 
L 857.821149 243.16 
L 863.105187 243.16 
L 868.389225 243.16 
L 873.673263 243.16 
L 878.957301 243.16 
L 884.24134 243.16 
L 889.525378 243.16 
L 894.809416 243.16 
L 900.093454 243.16 
L 905.377492 243.16 
L 910.66153 243.16 
L 915.945568 243.16 
L 921.229607 243.16 
L 926.513645 243.16 
L 931.797683 243.16 
L 937.081721 243.16 
L 942.365759 243.16 
L 947.649797 243.16 
L 952.933835 243.16 
L 958.217874 243.16 
L 963.501912 243.16 
L 968.78595 243.16 
L 974.069988 243.16 
L 979.354026 243.16 
L 984.638064 243.16 
L 989.922103 243.16 
L 995.206141 243.16 
L 1000.490179 243.16 
L 1005.774217 243.16 
L 1011.058255 243.16 
L 1016.342293 243.16 
L 1021.626331 243.16 
L 1026.91037 243.16 
L 1032.194408 243.16 
L 1037.478446 243.16 
L 1037.478446 243.159991 
L 1037.478446 243.159991 
L 1032.194408 243.159983 
L 1026.91037 243.159969 
L 1021.626331 243.159948 
L 1016.342293 243.159915 
L 1011.058255 243.159867 
L 1005.774217 243.159804 
L 1000.490179 243.159723 
L 995.206141 243.159626 
L 989.922103 243.15952 
L 984.638064 243.159413 
L 979.354026 243.159315 
L 974.069988 243.159238 
L 968.78595 243.15919 
L 963.501912 243.159178 
L 958.217874 243.159199 
L 952.933835 243.159248 
L 947.649797 243.15931 
L 942.365759 243.159367 
L 937.081721 243.159399 
L 931.797683 243.159384 
L 926.513645 243.159305 
L 921.229607 243.159149 
L 915.945568 243.158911 
L 910.66153 243.158598 
L 905.377492 243.158228 
L 900.093454 243.157832 
L 894.809416 243.15745 
L 889.525378 243.157127 
L 884.24134 243.156904 
L 878.957301 243.15681 
L 873.673263 243.156859 
L 868.389225 243.157045 
L 863.105187 243.157343 
L 857.821149 243.157717 
L 852.537111 243.158123 
L 847.253072 243.158522 
L 841.969034 243.15888 
L 836.684996 243.159176 
L 831.400958 243.159397 
L 826.11692 243.15954 
L 820.832882 243.159608 
L 815.548844 243.159605 
L 810.264805 243.159536 
L 804.980767 243.159409 
L 799.696729 243.159232 
L 794.412691 243.159014 
L 789.128653 243.158768 
L 783.844615 243.15851 
L 778.560577 243.158258 
L 773.276538 243.158032 
L 767.9925 243.157847 
L 762.708462 243.157714 
L 757.424424 243.157636 
L 752.140386 243.157606 
L 746.856348 243.157605 
L 741.572309 243.157608 
L 736.288271 243.157583 
L 731.004233 243.157498 
L 725.720195 243.157327 
L 720.436157 243.157054 
L 715.152119 243.156679 
L 709.868081 243.156221 
L 704.584042 243.155716 
L 699.300004 243.155213 
L 694.015966 243.154768 
L 688.731928 243.15443 
L 683.44789 243.154236 
L 678.163852 243.154197 
L 672.879814 243.154303 
L 667.595775 243.154521 
L 662.311737 243.154806 
L 657.027699 243.155108 
L 651.743661 243.155386 
L 646.459623 243.155607 
L 641.175585 243.155753 
L 635.891547 243.155818 
L 630.607508 243.1558 
L 625.32347 243.155707 
L 620.039432 243.155549 
L 614.755394 243.155338 
L 609.471356 243.155088 
L 604.187318 243.154815 
L 598.903279 243.154531 
L 593.619241 243.154241 
L 588.335203 243.153941 
L 583.051165 243.153615 
L 577.767127 243.153234 
L 572.483089 243.152762 
L 567.199051 243.152155 
L 561.915012 243.151367 
L 556.630974 243.150355 
L 551.346936 243.149076 
L 546.062898 243.147489 
L 540.77886 243.145548 
L 535.494822 243.143202 
L 530.210784 243.140395 
L 524.926745 243.137075 
L 519.642707 243.133211 
L 514.358669 243.128814 
L 509.074631 243.123953 
L 503.790593 243.118758 
L 498.506555 243.11341 
L 493.222516 243.108105 
L 487.938478 243.103009 
L 482.65444 243.098223 
L 477.370402 243.093756 
L 472.086364 243.089529 
L 466.802326 243.085404 
L 461.518288 243.081224 
L 456.234249 243.07685 
L 450.950211 243.072189 
L 445.666173 243.067199 
L 440.382135 243.061883 
L 435.098097 243.056267 
L 429.814059 243.050391 
L 424.530021 243.04429 
L 419.245982 243.037991 
L 413.961944 243.031502 
L 408.677906 243.024799 
L 403.393868 243.017806 
L 398.10983 243.010379 
L 392.825792 243.002297 
L 387.541753 242.993267 
L 382.257715 242.982947 
L 376.973677 242.970979 
L 371.689639 242.957041 
L 366.405601 242.940878 
L 361.121563 242.922331 
L 355.837525 242.901341 
L 350.553486 242.877922 
L 345.269448 242.852112 
L 339.98541 242.823905 
L 334.701372 242.793182 
L 329.417334 242.759654 
L 324.133296 242.722838 
L 318.849258 242.682081 
L 313.565219 242.636628 
L 308.281181 242.585718 
L 302.997143 242.528687 
L 297.713105 242.465041 
L 292.429067 242.394458 
L 287.145029 242.316695 
L 281.860991 242.231411 
L 276.576952 242.137911 
L 271.292914 242.034881 
L 266.008876 241.92019 
L 260.724838 241.790823 
L 255.4408 241.643039 
L 250.156762 241.472741 
L 244.872723 241.276035 
L 239.588685 241.049848 
L 234.304647 240.792423 
L 229.020609 240.503486 
L 223.736571 240.183899 
L 218.452533 239.834675 
L 213.168495 239.455391 
L 207.884456 239.042122 
L 202.600418 238.585119 
L 197.31638 238.066491 
L 192.032342 237.458025 
L 186.748304 236.719123 
L 181.464266 235.794581 
L 176.180228 234.611716 
L 170.896189 233.076203 
L 165.612151 231.06607 
L 160.328113 228.423808 
L 155.044075 224.947507 
L 149.760037 220.383438 
L 144.475999 214.4243 
L 139.19196 206.718911 
L 133.907922 196.899709 
L 128.623884 184.633105 
L 123.339846 169.693951 
L 118.055808 152.058907 
L 112.77177 132.005307 
L 107.487732 110.193881 
L 102.203693 87.708328 
L 96.919655 66.025348 
L 91.635617 46.897764 
L 86.351579 32.151307 
L 81.067541 23.419531 
L 75.783503 21.864762 
L 70.499465 27.947482 
L 65.215426 41.304444 
L 59.931388 60.77445 
L 54.64735 84.57442 
L 49.363312 110.588279 
L 44.079274 136.701115 
L 38.795236 161.101631 
L 33.511197 182.490107 
L 28.227159 200.160547 
L 22.943121 213.962215 
L 17.659083 224.174696 
L 12.375045 231.343951 
L 7.091007 236.123748 
L 1.806969 239.152524 
L -3.47707 240.977654 
L -8.761108 242.024004 
L -14.045146 242.594904 
z
" clip-path="url(#p3de2503a9e)" style="fill: #008000; fill-opacity: 0.25; stroke: #008000"/>
   </g>
   <g id="matplotlib.axis_1">
    <g id="xtick_1">
     <g id="line2d_1">
      <defs>
       <path id="me3a16dda38" d="M 0 0 
L 0 3.5 
" style="stroke: #000000; stroke-width: 0.8"/>
      </defs>
      <g>
       <use xlink:href="#me3a16dda38" x="58.43" y="243.16" style="stroke: #000000; stroke-width: 0.8"/>
      </g>
     </g>
     <g id="text_1">
      <!-- 0 -->
      <g transform="translate(54.6125 259.278125) scale(0.12 -0.12)">
       <defs>
        <path id="DejaVuSans-30" d="M 2034 4250 
Q 1547 4250 1301 3770 
Q 1056 3291 1056 2328 
Q 1056 1369 1301 889 
Q 1547 409 2034 409 
Q 2525 409 2770 889 
Q 3016 1369 3016 2328 
Q 3016 3291 2770 3770 
Q 2525 4250 2034 4250 
z
M 2034 4750 
Q 2819 4750 3233 4129 
Q 3647 3509 3647 2328 
Q 3647 1150 3233 529 
Q 2819 -91 2034 -91 
Q 1250 -91 836 529 
Q 422 1150 422 2328 
Q 422 3509 836 4129 
Q 1250 4750 2034 4750 
z
" transform="scale(0.015625)"/>
       </defs>
       <use xlink:href="#DejaVuSans-30"/>
      </g>
     </g>
    </g>
    <g id="xtick_2">
     <g id="line2d_2">
      <g>
       <use xlink:href="#me3a16dda38" x="128.707" y="243.16" style="stroke: #000000; stroke-width: 0.8"/>
      </g>
     </g>
     <g id="text_2">
      <!-- 20 -->
      <g transform="translate(121.072 259.278125) scale(0.12 -0.12)">
       <defs>
        <path id="DejaVuSans-32" d="M 1228 531 
L 3431 531 
L 3431 0 
L 469 0 
L 469 531 
Q 828 903 1448 1529 
Q 2069 2156 2228 2338 
Q 2531 2678 2651 2914 
Q 2772 3150 2772 3378 
Q 2772 3750 2511 3984 
Q 2250 4219 1831 4219 
Q 1534 4219 1204 4116 
Q 875 4013 500 3803 
L 500 4441 
Q 881 4594 1212 4672 
Q 1544 4750 1819 4750 
Q 2544 4750 2975 4387 
Q 3406 4025 3406 3419 
Q 3406 3131 3298 2873 
Q 3191 2616 2906 2266 
Q 2828 2175 2409 1742 
Q 1991 1309 1228 531 
z
" transform="scale(0.015625)"/>
       </defs>
       <use xlink:href="#DejaVuSans-32"/>
       <use xlink:href="#DejaVuSans-30" x="63.623047"/>
      </g>
     </g>
    </g>
    <g id="xtick_3">
     <g id="line2d_3">
      <g>
       <use xlink:href="#me3a16dda38" x="198.984" y="243.16" style="stroke: #000000; stroke-width: 0.8"/>
      </g>
     </g>
     <g id="text_3">
      <!-- 40 -->
      <g transform="translate(191.349 259.278125) scale(0.12 -0.12)">
       <defs>
        <path id="DejaVuSans-34" d="M 2419 4116 
L 825 1625 
L 2419 1625 
L 2419 4116 
z
M 2253 4666 
L 3047 4666 
L 3047 1625 
L 3713 1625 
L 3713 1100 
L 3047 1100 
L 3047 0 
L 2419 0 
L 2419 1100 
L 313 1100 
L 313 1709 
L 2253 4666 
z
" transform="scale(0.015625)"/>
       </defs>
       <use xlink:href="#DejaVuSans-34"/>
       <use xlink:href="#DejaVuSans-30" x="63.623047"/>
      </g>
     </g>
    </g>
    <g id="xtick_4">
     <g id="line2d_4">
      <g>
       <use xlink:href="#me3a16dda38" x="269.261" y="243.16" style="stroke: #000000; stroke-width: 0.8"/>
      </g>
     </g>
     <g id="text_4">
      <!-- 60 -->
      <g transform="translate(261.626 259.278125) scale(0.12 -0.12)">
       <defs>
        <path id="DejaVuSans-36" d="M 2113 2584 
Q 1688 2584 1439 2293 
Q 1191 2003 1191 1497 
Q 1191 994 1439 701 
Q 1688 409 2113 409 
Q 2538 409 2786 701 
Q 3034 994 3034 1497 
Q 3034 2003 2786 2293 
Q 2538 2584 2113 2584 
z
M 3366 4563 
L 3366 3988 
Q 3128 4100 2886 4159 
Q 2644 4219 2406 4219 
Q 1781 4219 1451 3797 
Q 1122 3375 1075 2522 
Q 1259 2794 1537 2939 
Q 1816 3084 2150 3084 
Q 2853 3084 3261 2657 
Q 3669 2231 3669 1497 
Q 3669 778 3244 343 
Q 2819 -91 2113 -91 
Q 1303 -91 875 529 
Q 447 1150 447 2328 
Q 447 3434 972 4092 
Q 1497 4750 2381 4750 
Q 2619 4750 2861 4703 
Q 3103 4656 3366 4563 
z
" transform="scale(0.015625)"/>
       </defs>
       <use xlink:href="#DejaVuSans-36"/>
       <use xlink:href="#DejaVuSans-30" x="63.623047"/>
      </g>
     </g>
    </g>
    <g id="xtick_5">
     <g id="line2d_5">
      <g>
       <use xlink:href="#me3a16dda38" x="339.538" y="243.16" style="stroke: #000000; stroke-width: 0.8"/>
      </g>
     </g>
     <g id="text_5">
      <!-- 80 -->
      <g transform="translate(331.903 259.278125) scale(0.12 -0.12)">
       <defs>
        <path id="DejaVuSans-38" d="M 2034 2216 
Q 1584 2216 1326 1975 
Q 1069 1734 1069 1313 
Q 1069 891 1326 650 
Q 1584 409 2034 409 
Q 2484 409 2743 651 
Q 3003 894 3003 1313 
Q 3003 1734 2745 1975 
Q 2488 2216 2034 2216 
z
M 1403 2484 
Q 997 2584 770 2862 
Q 544 3141 544 3541 
Q 544 4100 942 4425 
Q 1341 4750 2034 4750 
Q 2731 4750 3128 4425 
Q 3525 4100 3525 3541 
Q 3525 3141 3298 2862 
Q 3072 2584 2669 2484 
Q 3125 2378 3379 2068 
Q 3634 1759 3634 1313 
Q 3634 634 3220 271 
Q 2806 -91 2034 -91 
Q 1263 -91 848 271 
Q 434 634 434 1313 
Q 434 1759 690 2068 
Q 947 2378 1403 2484 
z
M 1172 3481 
Q 1172 3119 1398 2916 
Q 1625 2713 2034 2713 
Q 2441 2713 2670 2916 
Q 2900 3119 2900 3481 
Q 2900 3844 2670 4047 
Q 2441 4250 2034 4250 
Q 1625 4250 1398 4047 
Q 1172 3844 1172 3481 
z
" transform="scale(0.015625)"/>
       </defs>
       <use xlink:href="#DejaVuSans-38"/>
       <use xlink:href="#DejaVuSans-30" x="63.623047"/>
      </g>
     </g>
    </g>
    <g id="xtick_6">
     <g id="line2d_6">
      <g>
       <use xlink:href="#me3a16dda38" x="409.815" y="243.16" style="stroke: #000000; stroke-width: 0.8"/>
      </g>
     </g>
     <g id="text_6">
      <!-- 100 -->
      <g transform="translate(398.3625 259.278125) scale(0.12 -0.12)">
       <defs>
        <path id="DejaVuSans-31" d="M 794 531 
L 1825 531 
L 1825 4091 
L 703 3866 
L 703 4441 
L 1819 4666 
L 2450 4666 
L 2450 531 
L 3481 531 
L 3481 0 
L 794 0 
L 794 531 
z
" transform="scale(0.015625)"/>
       </defs>
       <use xlink:href="#DejaVuSans-31"/>
       <use xlink:href="#DejaVuSans-30" x="63.623047"/>
       <use xlink:href="#DejaVuSans-30" x="127.246094"/>
      </g>
     </g>
    </g>
    <g id="text_7">
     <!-- Mean Number of Changes -->
     <g transform="translate(169.077969 273.372187) scale(0.1 -0.1)">
      <defs>
       <path id="DejaVuSans-4d" d="M 628 4666 
L 1569 4666 
L 2759 1491 
L 3956 4666 
L 4897 4666 
L 4897 0 
L 4281 0 
L 4281 4097 
L 3078 897 
L 2444 897 
L 1241 4097 
L 1241 0 
L 628 0 
L 628 4666 
z
" transform="scale(0.015625)"/>
       <path id="DejaVuSans-65" d="M 3597 1894 
L 3597 1613 
L 953 1613 
Q 991 1019 1311 708 
Q 1631 397 2203 397 
Q 2534 397 2845 478 
Q 3156 559 3463 722 
L 3463 178 
Q 3153 47 2828 -22 
Q 2503 -91 2169 -91 
Q 1331 -91 842 396 
Q 353 884 353 1716 
Q 353 2575 817 3079 
Q 1281 3584 2069 3584 
Q 2775 3584 3186 3129 
Q 3597 2675 3597 1894 
z
M 3022 2063 
Q 3016 2534 2758 2815 
Q 2500 3097 2075 3097 
Q 1594 3097 1305 2825 
Q 1016 2553 972 2059 
L 3022 2063 
z
" transform="scale(0.015625)"/>
       <path id="DejaVuSans-61" d="M 2194 1759 
Q 1497 1759 1228 1600 
Q 959 1441 959 1056 
Q 959 750 1161 570 
Q 1363 391 1709 391 
Q 2188 391 2477 730 
Q 2766 1069 2766 1631 
L 2766 1759 
L 2194 1759 
z
M 3341 1997 
L 3341 0 
L 2766 0 
L 2766 531 
Q 2569 213 2275 61 
Q 1981 -91 1556 -91 
Q 1019 -91 701 211 
Q 384 513 384 1019 
Q 384 1609 779 1909 
Q 1175 2209 1959 2209 
L 2766 2209 
L 2766 2266 
Q 2766 2663 2505 2880 
Q 2244 3097 1772 3097 
Q 1472 3097 1187 3025 
Q 903 2953 641 2809 
L 641 3341 
Q 956 3463 1253 3523 
Q 1550 3584 1831 3584 
Q 2591 3584 2966 3190 
Q 3341 2797 3341 1997 
z
" transform="scale(0.015625)"/>
       <path id="DejaVuSans-6e" d="M 3513 2113 
L 3513 0 
L 2938 0 
L 2938 2094 
Q 2938 2591 2744 2837 
Q 2550 3084 2163 3084 
Q 1697 3084 1428 2787 
Q 1159 2491 1159 1978 
L 1159 0 
L 581 0 
L 581 3500 
L 1159 3500 
L 1159 2956 
Q 1366 3272 1645 3428 
Q 1925 3584 2291 3584 
Q 2894 3584 3203 3211 
Q 3513 2838 3513 2113 
z
" transform="scale(0.015625)"/>
       <path id="DejaVuSans-20" transform="scale(0.015625)"/>
       <path id="DejaVuSans-4e" d="M 628 4666 
L 1478 4666 
L 3547 763 
L 3547 4666 
L 4159 4666 
L 4159 0 
L 3309 0 
L 1241 3903 
L 1241 0 
L 628 0 
L 628 4666 
z
" transform="scale(0.015625)"/>
       <path id="DejaVuSans-75" d="M 544 1381 
L 544 3500 
L 1119 3500 
L 1119 1403 
Q 1119 906 1312 657 
Q 1506 409 1894 409 
Q 2359 409 2629 706 
Q 2900 1003 2900 1516 
L 2900 3500 
L 3475 3500 
L 3475 0 
L 2900 0 
L 2900 538 
Q 2691 219 2414 64 
Q 2138 -91 1772 -91 
Q 1169 -91 856 284 
Q 544 659 544 1381 
z
M 1991 3584 
L 1991 3584 
z
" transform="scale(0.015625)"/>
       <path id="DejaVuSans-6d" d="M 3328 2828 
Q 3544 3216 3844 3400 
Q 4144 3584 4550 3584 
Q 5097 3584 5394 3201 
Q 5691 2819 5691 2113 
L 5691 0 
L 5113 0 
L 5113 2094 
Q 5113 2597 4934 2840 
Q 4756 3084 4391 3084 
Q 3944 3084 3684 2787 
Q 3425 2491 3425 1978 
L 3425 0 
L 2847 0 
L 2847 2094 
Q 2847 2600 2669 2842 
Q 2491 3084 2119 3084 
Q 1678 3084 1418 2786 
Q 1159 2488 1159 1978 
L 1159 0 
L 581 0 
L 581 3500 
L 1159 3500 
L 1159 2956 
Q 1356 3278 1631 3431 
Q 1906 3584 2284 3584 
Q 2666 3584 2933 3390 
Q 3200 3197 3328 2828 
z
" transform="scale(0.015625)"/>
       <path id="DejaVuSans-62" d="M 3116 1747 
Q 3116 2381 2855 2742 
Q 2594 3103 2138 3103 
Q 1681 3103 1420 2742 
Q 1159 2381 1159 1747 
Q 1159 1113 1420 752 
Q 1681 391 2138 391 
Q 2594 391 2855 752 
Q 3116 1113 3116 1747 
z
M 1159 2969 
Q 1341 3281 1617 3432 
Q 1894 3584 2278 3584 
Q 2916 3584 3314 3078 
Q 3713 2572 3713 1747 
Q 3713 922 3314 415 
Q 2916 -91 2278 -91 
Q 1894 -91 1617 61 
Q 1341 213 1159 525 
L 1159 0 
L 581 0 
L 581 4863 
L 1159 4863 
L 1159 2969 
z
" transform="scale(0.015625)"/>
       <path id="DejaVuSans-72" d="M 2631 2963 
Q 2534 3019 2420 3045 
Q 2306 3072 2169 3072 
Q 1681 3072 1420 2755 
Q 1159 2438 1159 1844 
L 1159 0 
L 581 0 
L 581 3500 
L 1159 3500 
L 1159 2956 
Q 1341 3275 1631 3429 
Q 1922 3584 2338 3584 
Q 2397 3584 2469 3576 
Q 2541 3569 2628 3553 
L 2631 2963 
z
" transform="scale(0.015625)"/>
       <path id="DejaVuSans-6f" d="M 1959 3097 
Q 1497 3097 1228 2736 
Q 959 2375 959 1747 
Q 959 1119 1226 758 
Q 1494 397 1959 397 
Q 2419 397 2687 759 
Q 2956 1122 2956 1747 
Q 2956 2369 2687 2733 
Q 2419 3097 1959 3097 
z
M 1959 3584 
Q 2709 3584 3137 3096 
Q 3566 2609 3566 1747 
Q 3566 888 3137 398 
Q 2709 -91 1959 -91 
Q 1206 -91 779 398 
Q 353 888 353 1747 
Q 353 2609 779 3096 
Q 1206 3584 1959 3584 
z
" transform="scale(0.015625)"/>
       <path id="DejaVuSans-66" d="M 2375 4863 
L 2375 4384 
L 1825 4384 
Q 1516 4384 1395 4259 
Q 1275 4134 1275 3809 
L 1275 3500 
L 2222 3500 
L 2222 3053 
L 1275 3053 
L 1275 0 
L 697 0 
L 697 3053 
L 147 3053 
L 147 3500 
L 697 3500 
L 697 3744 
Q 697 4328 969 4595 
Q 1241 4863 1831 4863 
L 2375 4863 
z
" transform="scale(0.015625)"/>
       <path id="DejaVuSans-43" d="M 4122 4306 
L 4122 3641 
Q 3803 3938 3442 4084 
Q 3081 4231 2675 4231 
Q 1875 4231 1450 3742 
Q 1025 3253 1025 2328 
Q 1025 1406 1450 917 
Q 1875 428 2675 428 
Q 3081 428 3442 575 
Q 3803 722 4122 1019 
L 4122 359 
Q 3791 134 3420 21 
Q 3050 -91 2638 -91 
Q 1578 -91 968 557 
Q 359 1206 359 2328 
Q 359 3453 968 4101 
Q 1578 4750 2638 4750 
Q 3056 4750 3426 4639 
Q 3797 4528 4122 4306 
z
" transform="scale(0.015625)"/>
       <path id="DejaVuSans-68" d="M 3513 2113 
L 3513 0 
L 2938 0 
L 2938 2094 
Q 2938 2591 2744 2837 
Q 2550 3084 2163 3084 
Q 1697 3084 1428 2787 
Q 1159 2491 1159 1978 
L 1159 0 
L 581 0 
L 581 4863 
L 1159 4863 
L 1159 2956 
Q 1366 3272 1645 3428 
Q 1925 3584 2291 3584 
Q 2894 3584 3203 3211 
Q 3513 2838 3513 2113 
z
" transform="scale(0.015625)"/>
       <path id="DejaVuSans-67" d="M 2906 1791 
Q 2906 2416 2648 2759 
Q 2391 3103 1925 3103 
Q 1463 3103 1205 2759 
Q 947 2416 947 1791 
Q 947 1169 1205 825 
Q 1463 481 1925 481 
Q 2391 481 2648 825 
Q 2906 1169 2906 1791 
z
M 3481 434 
Q 3481 -459 3084 -895 
Q 2688 -1331 1869 -1331 
Q 1566 -1331 1297 -1286 
Q 1028 -1241 775 -1147 
L 775 -588 
Q 1028 -725 1275 -790 
Q 1522 -856 1778 -856 
Q 2344 -856 2625 -561 
Q 2906 -266 2906 331 
L 2906 616 
Q 2728 306 2450 153 
Q 2172 0 1784 0 
Q 1141 0 747 490 
Q 353 981 353 1791 
Q 353 2603 747 3093 
Q 1141 3584 1784 3584 
Q 2172 3584 2450 3431 
Q 2728 3278 2906 2969 
L 2906 3500 
L 3481 3500 
L 3481 434 
z
" transform="scale(0.015625)"/>
       <path id="DejaVuSans-73" d="M 2834 3397 
L 2834 2853 
Q 2591 2978 2328 3040 
Q 2066 3103 1784 3103 
Q 1356 3103 1142 2972 
Q 928 2841 928 2578 
Q 928 2378 1081 2264 
Q 1234 2150 1697 2047 
L 1894 2003 
Q 2506 1872 2764 1633 
Q 3022 1394 3022 966 
Q 3022 478 2636 193 
Q 2250 -91 1575 -91 
Q 1294 -91 989 -36 
Q 684 19 347 128 
L 347 722 
Q 666 556 975 473 
Q 1284 391 1588 391 
Q 1994 391 2212 530 
Q 2431 669 2431 922 
Q 2431 1156 2273 1281 
Q 2116 1406 1581 1522 
L 1381 1569 
Q 847 1681 609 1914 
Q 372 2147 372 2553 
Q 372 3047 722 3315 
Q 1072 3584 1716 3584 
Q 2034 3584 2315 3537 
Q 2597 3491 2834 3397 
z
" transform="scale(0.015625)"/>
      </defs>
      <use xlink:href="#DejaVuSans-4d"/>
      <use xlink:href="#DejaVuSans-65" x="86.279297"/>
      <use xlink:href="#DejaVuSans-61" x="147.802734"/>
      <use xlink:href="#DejaVuSans-6e" x="209.082031"/>
      <use xlink:href="#DejaVuSans-20" x="272.460938"/>
      <use xlink:href="#DejaVuSans-4e" x="304.248047"/>
      <use xlink:href="#DejaVuSans-75" x="379.052734"/>
      <use xlink:href="#DejaVuSans-6d" x="442.431641"/>
      <use xlink:href="#DejaVuSans-62" x="539.84375"/>
      <use xlink:href="#DejaVuSans-65" x="603.320312"/>
      <use xlink:href="#DejaVuSans-72" x="664.84375"/>
      <use xlink:href="#DejaVuSans-20" x="705.957031"/>
      <use xlink:href="#DejaVuSans-6f" x="737.744141"/>
      <use xlink:href="#DejaVuSans-66" x="798.925781"/>
      <use xlink:href="#DejaVuSans-20" x="834.130859"/>
      <use xlink:href="#DejaVuSans-43" x="865.917969"/>
      <use xlink:href="#DejaVuSans-68" x="935.742188"/>
      <use xlink:href="#DejaVuSans-61" x="999.121094"/>
      <use xlink:href="#DejaVuSans-6e" x="1060.400391"/>
      <use xlink:href="#DejaVuSans-67" x="1123.779297"/>
      <use xlink:href="#DejaVuSans-65" x="1187.255859"/>
      <use xlink:href="#DejaVuSans-73" x="1248.779297"/>
     </g>
    </g>
   </g>
   <g id="matplotlib.axis_2">
    <g id="ytick_1">
     <g id="line2d_7">
      <defs>
       <path id="mb0b9fe4da2" d="M 0 0 
L -3.5 0 
" style="stroke: #000000; stroke-width: 0.8"/>
      </defs>
      <g>
       <use xlink:href="#mb0b9fe4da2" x="58.43" y="243.16" style="stroke: #000000; stroke-width: 0.8"/>
      </g>
     </g>
     <g id="text_8">
      <!-- 0.00 -->
      <g transform="translate(24.71125 247.719063) scale(0.12 -0.12)">
       <defs>
        <path id="DejaVuSans-2e" d="M 684 794 
L 1344 794 
L 1344 0 
L 684 0 
L 684 794 
z
" transform="scale(0.015625)"/>
       </defs>
       <use xlink:href="#DejaVuSans-30"/>
       <use xlink:href="#DejaVuSans-2e" x="63.623047"/>
       <use xlink:href="#DejaVuSans-30" x="95.410156"/>
       <use xlink:href="#DejaVuSans-30" x="159.033203"/>
      </g>
     </g>
    </g>
    <g id="ytick_2">
     <g id="line2d_8">
      <g>
       <use xlink:href="#mb0b9fe4da2" x="58.43" y="195.399899" style="stroke: #000000; stroke-width: 0.8"/>
      </g>
     </g>
     <g id="text_9">
      <!-- 0.01 -->
      <g transform="translate(24.71125 199.958961) scale(0.12 -0.12)">
       <use xlink:href="#DejaVuSans-30"/>
       <use xlink:href="#DejaVuSans-2e" x="63.623047"/>
       <use xlink:href="#DejaVuSans-30" x="95.410156"/>
       <use xlink:href="#DejaVuSans-31" x="159.033203"/>
      </g>
     </g>
    </g>
    <g id="ytick_3">
     <g id="line2d_9">
      <g>
       <use xlink:href="#mb0b9fe4da2" x="58.43" y="147.639797" style="stroke: #000000; stroke-width: 0.8"/>
      </g>
     </g>
     <g id="text_10">
      <!-- 0.02 -->
      <g transform="translate(24.71125 152.19886) scale(0.12 -0.12)">
       <use xlink:href="#DejaVuSans-30"/>
       <use xlink:href="#DejaVuSans-2e" x="63.623047"/>
       <use xlink:href="#DejaVuSans-30" x="95.410156"/>
       <use xlink:href="#DejaVuSans-32" x="159.033203"/>
      </g>
     </g>
    </g>
    <g id="ytick_4">
     <g id="line2d_10">
      <g>
       <use xlink:href="#mb0b9fe4da2" x="58.43" y="99.879696" style="stroke: #000000; stroke-width: 0.8"/>
      </g>
     </g>
     <g id="text_11">
      <!-- 0.03 -->
      <g transform="translate(24.71125 104.438758) scale(0.12 -0.12)">
       <defs>
        <path id="DejaVuSans-33" d="M 2597 2516 
Q 3050 2419 3304 2112 
Q 3559 1806 3559 1356 
Q 3559 666 3084 287 
Q 2609 -91 1734 -91 
Q 1441 -91 1130 -33 
Q 819 25 488 141 
L 488 750 
Q 750 597 1062 519 
Q 1375 441 1716 441 
Q 2309 441 2620 675 
Q 2931 909 2931 1356 
Q 2931 1769 2642 2001 
Q 2353 2234 1838 2234 
L 1294 2234 
L 1294 2753 
L 1863 2753 
Q 2328 2753 2575 2939 
Q 2822 3125 2822 3475 
Q 2822 3834 2567 4026 
Q 2313 4219 1838 4219 
Q 1578 4219 1281 4162 
Q 984 4106 628 3988 
L 628 4550 
Q 988 4650 1302 4700 
Q 1616 4750 1894 4750 
Q 2613 4750 3031 4423 
Q 3450 4097 3450 3541 
Q 3450 3153 3228 2886 
Q 3006 2619 2597 2516 
z
" transform="scale(0.015625)"/>
       </defs>
       <use xlink:href="#DejaVuSans-30"/>
       <use xlink:href="#DejaVuSans-2e" x="63.623047"/>
       <use xlink:href="#DejaVuSans-30" x="95.410156"/>
       <use xlink:href="#DejaVuSans-33" x="159.033203"/>
      </g>
     </g>
    </g>
    <g id="ytick_5">
     <g id="line2d_11">
      <g>
       <use xlink:href="#mb0b9fe4da2" x="58.43" y="52.119594" style="stroke: #000000; stroke-width: 0.8"/>
      </g>
     </g>
     <g id="text_12">
      <!-- 0.04 -->
      <g transform="translate(24.71125 56.678657) scale(0.12 -0.12)">
       <use xlink:href="#DejaVuSans-30"/>
       <use xlink:href="#DejaVuSans-2e" x="63.623047"/>
       <use xlink:href="#DejaVuSans-30" x="95.410156"/>
       <use xlink:href="#DejaVuSans-34" x="159.033203"/>
      </g>
     </g>
    </g>
    <g id="text_13">
     <!-- Density -->
     <g transform="translate(18.631563 145.988594) rotate(-90) scale(0.1 -0.1)">
      <defs>
       <path id="DejaVuSans-44" d="M 1259 4147 
L 1259 519 
L 2022 519 
Q 2988 519 3436 956 
Q 3884 1394 3884 2338 
Q 3884 3275 3436 3711 
Q 2988 4147 2022 4147 
L 1259 4147 
z
M 628 4666 
L 1925 4666 
Q 3281 4666 3915 4102 
Q 4550 3538 4550 2338 
Q 4550 1131 3912 565 
Q 3275 0 1925 0 
L 628 0 
L 628 4666 
z
" transform="scale(0.015625)"/>
       <path id="DejaVuSans-69" d="M 603 3500 
L 1178 3500 
L 1178 0 
L 603 0 
L 603 3500 
z
M 603 4863 
L 1178 4863 
L 1178 4134 
L 603 4134 
L 603 4863 
z
" transform="scale(0.015625)"/>
       <path id="DejaVuSans-74" d="M 1172 4494 
L 1172 3500 
L 2356 3500 
L 2356 3053 
L 1172 3053 
L 1172 1153 
Q 1172 725 1289 603 
Q 1406 481 1766 481 
L 2356 481 
L 2356 0 
L 1766 0 
Q 1100 0 847 248 
Q 594 497 594 1153 
L 594 3053 
L 172 3053 
L 172 3500 
L 594 3500 
L 594 4494 
L 1172 4494 
z
" transform="scale(0.015625)"/>
       <path id="DejaVuSans-79" d="M 2059 -325 
Q 1816 -950 1584 -1140 
Q 1353 -1331 966 -1331 
L 506 -1331 
L 506 -850 
L 844 -850 
Q 1081 -850 1212 -737 
Q 1344 -625 1503 -206 
L 1606 56 
L 191 3500 
L 800 3500 
L 1894 763 
L 2988 3500 
L 3597 3500 
L 2059 -325 
z
" transform="scale(0.015625)"/>
      </defs>
      <use xlink:href="#DejaVuSans-44"/>
      <use xlink:href="#DejaVuSans-65" x="77.001953"/>
      <use xlink:href="#DejaVuSans-6e" x="138.525391"/>
      <use xlink:href="#DejaVuSans-73" x="201.904297"/>
      <use xlink:href="#DejaVuSans-69" x="254.003906"/>
      <use xlink:href="#DejaVuSans-74" x="281.787109"/>
      <use xlink:href="#DejaVuSans-79" x="320.996094"/>
     </g>
    </g>
   </g>
   <g id="patch_3">
    <path d="M 58.43 243.16 
L 58.43 10.8 
" style="fill: none; stroke: #000000; stroke-width: 0.8; stroke-linejoin: miter; stroke-linecap: square"/>
   </g>
   <g id="patch_4">
    <path d="M 409.815 243.16 
L 409.815 10.8 
" style="fill: none; stroke: #000000; stroke-width: 0.8; stroke-linejoin: miter; stroke-linecap: square"/>
   </g>
   <g id="patch_5">
    <path d="M 58.43 243.16 
L 409.815 243.16 
" style="fill: none; stroke: #000000; stroke-width: 0.8; stroke-linejoin: miter; stroke-linecap: square"/>
   </g>
   <g id="patch_6">
    <path d="M 58.43 10.8 
L 409.815 10.8 
" style="fill: none; stroke: #000000; stroke-width: 0.8; stroke-linejoin: miter; stroke-linecap: square"/>
   </g>
   <g id="legend_1">
    <g id="patch_7">
     <path d="M 309.256875 55.6275 
L 401.415 55.6275 
Q 403.815 55.6275 403.815 53.2275 
L 403.815 19.2 
Q 403.815 16.8 401.415 16.8 
L 309.256875 16.8 
Q 306.856875 16.8 306.856875 19.2 
L 306.856875 53.2275 
Q 306.856875 55.6275 309.256875 55.6275 
z
" style="fill: #ffffff; opacity: 0.8; stroke: #cccccc; stroke-linejoin: miter"/>
    </g>
    <g id="patch_8">
     <path d="M 311.656875 30.718125 
L 335.656875 30.718125 
L 335.656875 22.318125 
L 311.656875 22.318125 
z
" style="fill: #0000ff; fill-opacity: 0.25; stroke-dasharray: 3.7,1.6; stroke-dashoffset: 0; stroke: #0000ff; stroke-linejoin: miter"/>
    </g>
    <g id="text_14">
     <!-- Difftastic -->
     <g transform="translate(345.256875 30.718125) scale(0.12 -0.12)">
      <defs>
       <path id="DejaVuSans-63" d="M 3122 3366 
L 3122 2828 
Q 2878 2963 2633 3030 
Q 2388 3097 2138 3097 
Q 1578 3097 1268 2742 
Q 959 2388 959 1747 
Q 959 1106 1268 751 
Q 1578 397 2138 397 
Q 2388 397 2633 464 
Q 2878 531 3122 666 
L 3122 134 
Q 2881 22 2623 -34 
Q 2366 -91 2075 -91 
Q 1284 -91 818 406 
Q 353 903 353 1747 
Q 353 2603 823 3093 
Q 1294 3584 2113 3584 
Q 2378 3584 2631 3529 
Q 2884 3475 3122 3366 
z
" transform="scale(0.015625)"/>
      </defs>
      <use xlink:href="#DejaVuSans-44"/>
      <use xlink:href="#DejaVuSans-69" x="77.001953"/>
      <use xlink:href="#DejaVuSans-66" x="104.785156"/>
      <use xlink:href="#DejaVuSans-66" x="139.990234"/>
      <use xlink:href="#DejaVuSans-74" x="173.445312"/>
      <use xlink:href="#DejaVuSans-61" x="212.654297"/>
      <use xlink:href="#DejaVuSans-73" x="273.933594"/>
      <use xlink:href="#DejaVuSans-74" x="326.033203"/>
      <use xlink:href="#DejaVuSans-69" x="365.242188"/>
      <use xlink:href="#DejaVuSans-63" x="393.025391"/>
     </g>
    </g>
    <g id="patch_9">
     <path d="M 311.656875 48.331875 
L 335.656875 48.331875 
L 335.656875 39.931875 
L 311.656875 39.931875 
z
" style="fill: #008000; fill-opacity: 0.25; stroke: #008000; stroke-linejoin: miter"/>
    </g>
    <g id="text_15">
     <!-- SoliDiffy -->
     <g transform="translate(345.256875 48.331875) scale(0.12 -0.12)">
      <defs>
       <path id="DejaVuSans-53" d="M 3425 4513 
L 3425 3897 
Q 3066 4069 2747 4153 
Q 2428 4238 2131 4238 
Q 1616 4238 1336 4038 
Q 1056 3838 1056 3469 
Q 1056 3159 1242 3001 
Q 1428 2844 1947 2747 
L 2328 2669 
Q 3034 2534 3370 2195 
Q 3706 1856 3706 1288 
Q 3706 609 3251 259 
Q 2797 -91 1919 -91 
Q 1588 -91 1214 -16 
Q 841 59 441 206 
L 441 856 
Q 825 641 1194 531 
Q 1563 422 1919 422 
Q 2459 422 2753 634 
Q 3047 847 3047 1241 
Q 3047 1584 2836 1778 
Q 2625 1972 2144 2069 
L 1759 2144 
Q 1053 2284 737 2584 
Q 422 2884 422 3419 
Q 422 4038 858 4394 
Q 1294 4750 2059 4750 
Q 2388 4750 2728 4690 
Q 3069 4631 3425 4513 
z
" transform="scale(0.015625)"/>
       <path id="DejaVuSans-6c" d="M 603 4863 
L 1178 4863 
L 1178 0 
L 603 0 
L 603 4863 
z
" transform="scale(0.015625)"/>
      </defs>
      <use xlink:href="#DejaVuSans-53"/>
      <use xlink:href="#DejaVuSans-6f" x="63.476562"/>
      <use xlink:href="#DejaVuSans-6c" x="124.658203"/>
      <use xlink:href="#DejaVuSans-69" x="152.441406"/>
      <use xlink:href="#DejaVuSans-44" x="180.224609"/>
      <use xlink:href="#DejaVuSans-69" x="257.226562"/>
      <use xlink:href="#DejaVuSans-66" x="285.009766"/>
      <use xlink:href="#DejaVuSans-66" x="320.214844"/>
      <use xlink:href="#DejaVuSans-79" x="353.669922"/>
     </g>
    </g>
   </g>
  </g>
 </g>
 <defs>
  <clipPath id="p3de2503a9e">
   <rect x="58.43" y="10.8" width="351.385" height="232.36"/>
  </clipPath>
 </defs>
</svg>
