<?xml version="1.0" encoding="utf-8" standalone="no"?>
<!DOCTYPE svg PUBLIC "-//W3C//DTD SVG 1.1//EN"
  "http://www.w3.org/Graphics/SVG/1.1/DTD/svg11.dtd">
<svg xmlns:xlink="http://www.w3.org/1999/xlink" width="432pt" height="288pt" viewBox="0 0 432 288" xmlns="http://www.w3.org/2000/svg" version="1.1">
 <metadata>
  <rdf:RDF xmlns:dc="http://purl.org/dc/elements/1.1/" xmlns:cc="http://creativecommons.org/ns#" xmlns:rdf="http://www.w3.org/1999/02/22-rdf-syntax-ns#">
   <cc:Work>
    <dc:type rdf:resource="http://purl.org/dc/dcmitype/StillImage"/>
    <dc:date>2024-09-11T22:36:56.473960</dc:date>
    <dc:format>image/svg+xml</dc:format>
    <dc:creator>
     <cc:Agent>
      <dc:title>Matplotlib v3.9.0, https://matplotlib.org/</dc:title>
     </cc:Agent>
    </dc:creator>
   </cc:Work>
  </rdf:RDF>
 </metadata>
 <defs>
  <style type="text/css">*{stroke-linejoin: round; stroke-linecap: butt}</style>
 </defs>
 <g id="figure_1">
  <g id="patch_1">
   <path d="M 0 288 
L 432 288 
L 432 0 
L 0 0 
z
" style="fill: #ffffff"/>
  </g>
  <g id="axes_1">
   <g id="patch_2">
    <path d="M 58.52 243.16 
L 409.815 243.16 
L 409.815 10.8 
L 58.52 10.8 
z
" style="fill: #ffffff"/>
   </g>
   <g id="PolyCollection_1">
    <path d="M 16.524722 242.705526 
L 16.524722 243.16 
L 102.157888 243.16 
L 187.791055 243.16 
L 273.424222 243.16 
L 359.057389 243.16 
L 444.690556 243.16 
L 530.323723 243.16 
L 615.95689 243.16 
L 701.590057 243.16 
L 787.223223 243.16 
L 872.85639 243.16 
L 958.489557 243.16 
L 1044.122724 243.16 
L 1129.755891 243.16 
L 1215.389058 243.16 
L 1301.022225 243.16 
L 1386.655391 243.16 
L 1472.288558 243.16 
L 1557.921725 243.16 
L 1643.554892 243.16 
L 1729.188059 243.16 
L 1814.821226 243.16 
L 1900.454393 243.16 
L 1986.08756 243.16 
L 2071.720726 243.16 
L 2157.353893 243.16 
L 2242.98706 243.16 
L 2328.620227 243.16 
L 2414.253394 243.16 
L 2499.886561 243.16 
L 2585.519728 243.16 
L 2671.152895 243.16 
L 2756.786061 243.16 
L 2842.419228 243.16 
L 2928.052395 243.16 
L 3013.685562 243.16 
L 3099.318729 243.16 
L 3184.951896 243.16 
L 3270.585063 243.16 
L 3356.218229 243.16 
L 3441.851396 243.16 
L 3527.484563 243.16 
L 3613.11773 243.16 
L 3698.750897 243.16 
L 3784.384064 243.16 
L 3870.017231 243.16 
L 3955.650398 243.16 
L 4041.283564 243.16 
L 4126.916731 243.16 
L 4212.549898 243.16 
L 4298.183065 243.16 
L 4383.816232 243.16 
L 4469.449399 243.16 
L 4555.082566 243.16 
L 4640.715732 243.16 
L 4726.348899 243.16 
L 4811.982066 243.16 
L 4897.615233 243.16 
L 4983.2484 243.16 
L 5068.881567 243.16 
L 5154.514734 243.16 
L 5240.147901 243.16 
L 5325.781067 243.16 
L 5411.414234 243.16 
L 5497.047401 243.16 
L 5582.680568 243.16 
L 5668.313735 243.16 
L 5753.946902 243.16 
L 5839.580069 243.16 
L 5925.213236 243.16 
L 6010.846402 243.16 
L 6096.479569 243.16 
L 6182.112736 243.16 
L 6267.745903 243.16 
L 6353.37907 243.16 
L 6439.012237 243.16 
L 6524.645404 243.16 
L 6610.27857 243.16 
L 6695.911737 243.16 
L 6781.544904 243.16 
L 6867.178071 243.16 
L 6952.811238 243.16 
L 7038.444405 243.16 
L 7124.077572 243.16 
L 7209.710739 243.16 
L 7295.343905 243.16 
L 7380.977072 243.16 
L 7466.610239 243.16 
L 7552.243406 243.16 
L 7637.876573 243.16 
L 7723.50974 243.16 
L 7809.142907 243.16 
L 7894.776073 243.16 
L 7980.40924 243.16 
L 8066.042407 243.16 
L 8151.675574 243.16 
L 8237.308741 243.16 
L 8322.941908 243.16 
L 8408.575075 243.16 
L 8494.208242 243.16 
L 8579.841408 243.16 
L 8665.474575 243.16 
L 8751.107742 243.16 
L 8836.740909 243.16 
L 8922.374076 243.16 
L 9008.007243 243.16 
L 9093.64041 243.16 
L 9179.273577 243.16 
L 9264.906743 243.16 
L 9350.53991 243.16 
L 9436.173077 243.16 
L 9521.806244 243.16 
L 9607.439411 243.16 
L 9693.072578 243.16 
L 9778.705745 243.16 
L 9864.338911 243.16 
L 9949.972078 243.16 
L 10035.605245 243.16 
L 10121.238412 243.16 
L 10206.871579 243.16 
L 10292.504746 243.16 
L 10378.137913 243.16 
L 10463.77108 243.16 
L 10549.404246 243.16 
L 10635.037413 243.16 
L 10720.67058 243.16 
L 10806.303747 243.16 
L 10891.936914 243.16 
L 10977.570081 243.16 
L 11063.203248 243.16 
L 11148.836414 243.16 
L 11234.469581 243.16 
L 11320.102748 243.16 
L 11405.735915 243.16 
L 11491.369082 243.16 
L 11577.002249 243.16 
L 11662.635416 243.16 
L 11748.268583 243.16 
L 11833.901749 243.16 
L 11919.534916 243.16 
L 12005.168083 243.16 
L 12090.80125 243.16 
L 12176.434417 243.16 
L 12262.067584 243.16 
L 12347.700751 243.16 
L 12433.333918 243.16 
L 12518.967084 243.16 
L 12604.600251 243.16 
L 12690.233418 243.16 
L 12775.866585 243.16 
L 12861.499752 243.16 
L 12947.132919 243.16 
L 13032.766086 243.16 
L 13118.399252 243.16 
L 13204.032419 243.16 
L 13289.665586 243.16 
L 13375.298753 243.16 
L 13460.93192 243.16 
L 13546.565087 243.16 
L 13632.198254 243.16 
L 13717.831421 243.16 
L 13803.464587 243.16 
L 13889.097754 243.16 
L 13974.730921 243.16 
L 14060.364088 243.16 
L 14145.997255 243.16 
L 14231.630422 243.16 
L 14317.263589 243.16 
L 14402.896755 243.16 
L 14488.529922 243.16 
L 14574.163089 243.16 
L 14659.796256 243.16 
L 14745.429423 243.16 
L 14831.06259 243.16 
L 14916.695757 243.16 
L 15002.328924 243.16 
L 15087.96209 243.16 
L 15173.595257 243.16 
L 15259.228424 243.16 
L 15344.861591 243.16 
L 15430.494758 243.16 
L 15516.127925 243.16 
L 15601.761092 243.16 
L 15687.394259 243.16 
L 15773.027425 243.16 
L 15858.660592 243.16 
L 15944.293759 243.16 
L 16029.926926 243.16 
L 16115.560093 243.16 
L 16201.19326 243.16 
L 16286.826427 243.16 
L 16372.459593 243.16 
L 16458.09276 243.16 
L 16543.725927 243.16 
L 16629.359094 243.16 
L 16714.992261 243.16 
L 16800.625428 243.16 
L 16886.258595 243.16 
L 16971.891762 243.16 
L 17057.524928 243.16 
L 17057.524928 243.159994 
L 17057.524928 243.159994 
L 16971.891762 243.159984 
L 16886.258595 243.16 
L 16800.625428 243.16 
L 16714.992261 243.16 
L 16629.359094 243.16 
L 16543.725927 243.16 
L 16458.09276 243.16 
L 16372.459593 243.16 
L 16286.826427 243.16 
L 16201.19326 243.16 
L 16115.560093 243.16 
L 16029.926926 243.16 
L 15944.293759 243.16 
L 15858.660592 243.16 
L 15773.027425 243.16 
L 15687.394259 243.16 
L 15601.761092 243.16 
L 15516.127925 243.16 
L 15430.494758 243.16 
L 15344.861591 243.16 
L 15259.228424 243.16 
L 15173.595257 243.16 
L 15087.96209 243.16 
L 15002.328924 243.16 
L 14916.695757 243.16 
L 14831.06259 243.16 
L 14745.429423 243.16 
L 14659.796256 243.16 
L 14574.163089 243.16 
L 14488.529922 243.16 
L 14402.896755 243.16 
L 14317.263589 243.16 
L 14231.630422 243.16 
L 14145.997255 243.16 
L 14060.364088 243.16 
L 13974.730921 243.16 
L 13889.097754 243.16 
L 13803.464587 243.16 
L 13717.831421 243.16 
L 13632.198254 243.16 
L 13546.565087 243.16 
L 13460.93192 243.16 
L 13375.298753 243.16 
L 13289.665586 243.16 
L 13204.032419 243.16 
L 13118.399252 243.16 
L 13032.766086 243.16 
L 12947.132919 243.16 
L 12861.499752 243.16 
L 12775.866585 243.16 
L 12690.233418 243.16 
L 12604.600251 243.16 
L 12518.967084 243.16 
L 12433.333918 243.16 
L 12347.700751 243.16 
L 12262.067584 243.16 
L 12176.434417 243.16 
L 12090.80125 243.16 
L 12005.168083 243.16 
L 11919.534916 243.16 
L 11833.901749 243.16 
L 11748.268583 243.16 
L 11662.635416 243.16 
L 11577.002249 243.16 
L 11491.369082 243.16 
L 11405.735915 243.16 
L 11320.102748 243.16 
L 11234.469581 243.16 
L 11148.836414 243.16 
L 11063.203248 243.16 
L 10977.570081 243.16 
L 10891.936914 243.16 
L 10806.303747 243.16 
L 10720.67058 243.16 
L 10635.037413 243.16 
L 10549.404246 243.16 
L 10463.77108 243.16 
L 10378.137913 243.16 
L 10292.504746 243.16 
L 10206.871579 243.16 
L 10121.238412 243.16 
L 10035.605245 243.16 
L 9949.972078 243.16 
L 9864.338911 243.16 
L 9778.705745 243.16 
L 9693.072578 243.16 
L 9607.439411 243.16 
L 9521.806244 243.16 
L 9436.173077 243.16 
L 9350.53991 243.16 
L 9264.906743 243.16 
L 9179.273577 243.16 
L 9093.64041 243.16 
L 9008.007243 243.16 
L 8922.374076 243.159579 
L 8836.740909 243.15979 
L 8751.107742 243.16 
L 8665.474575 243.16 
L 8579.841408 243.159999 
L 8494.208242 243.159922 
L 8408.575075 243.159899 
L 8322.941908 243.159996 
L 8237.308741 243.159626 
L 8151.675574 243.16 
L 8066.042407 243.159364 
L 7980.40924 243.159665 
L 7894.776073 243.16 
L 7809.142907 243.16 
L 7723.50974 243.16 
L 7637.876573 243.16 
L 7552.243406 243.159092 
L 7466.610239 243.16 
L 7380.977072 243.16 
L 7295.343905 243.15985 
L 7209.710739 243.159999 
L 7124.077572 243.16 
L 7038.444405 243.159667 
L 6952.811238 243.159924 
L 6867.178071 243.159514 
L 6781.544904 243.16 
L 6695.911737 243.16 
L 6610.27857 243.16 
L 6524.645404 243.16 
L 6439.012237 243.16 
L 6353.37907 243.159796 
L 6267.745903 243.16 
L 6182.112736 243.16 
L 6096.479569 243.16 
L 6010.846402 243.16 
L 5925.213236 243.15937 
L 5839.580069 243.159906 
L 5753.946902 243.15981 
L 5668.313735 243.159963 
L 5582.680568 243.159972 
L 5497.047401 243.159867 
L 5411.414234 243.159913 
L 5325.781067 243.15929 
L 5240.147901 243.159766 
L 5154.514734 243.159095 
L 5068.881567 243.159693 
L 4983.2484 243.159934 
L 4897.615233 243.159483 
L 4811.982066 243.15974 
L 4726.348899 243.159716 
L 4640.715732 243.16 
L 4555.082566 243.159781 
L 4469.449399 243.159994 
L 4383.816232 243.157916 
L 4298.183065 243.159509 
L 4212.549898 243.158838 
L 4126.916731 243.154786 
L 4041.283564 243.158843 
L 3955.650398 243.158005 
L 3870.017231 243.158607 
L 3784.384064 243.156134 
L 3698.750897 243.158739 
L 3613.11773 243.158638 
L 3527.484563 243.158476 
L 3441.851396 243.157899 
L 3356.218229 243.154893 
L 3270.585063 243.157733 
L 3184.951896 243.156203 
L 3099.318729 243.158805 
L 3013.685562 243.153685 
L 2928.052395 243.156998 
L 2842.419228 243.156968 
L 2756.786061 243.15527 
L 2671.152895 243.150027 
L 2585.519728 243.152533 
L 2499.886561 243.155446 
L 2414.253394 243.151168 
L 2328.620227 243.149773 
L 2242.98706 243.147646 
L 2157.353893 243.152135 
L 2071.720726 243.14774 
L 1986.08756 243.14637 
L 1900.454393 243.14809 
L 1814.821226 243.138841 
L 1729.188059 243.139393 
L 1643.554892 243.143334 
L 1557.921725 243.136381 
L 1472.288558 243.130821 
L 1386.655391 243.128069 
L 1301.022225 243.10784 
L 1215.389058 243.110224 
L 1129.755891 243.087001 
L 1044.122724 243.083287 
L 958.489557 243.061447 
L 872.85639 243.02147 
L 787.223223 242.990501 
L 701.590057 242.951972 
L 615.95689 242.863593 
L 530.323723 242.711906 
L 444.690556 242.324885 
L 359.057389 241.550235 
L 273.424222 240.370153 
L 187.791055 238.28769 
L 102.157888 200.312389 
L 16.524722 242.705526 
z
" clip-path="url(#p8ecfd55e7e)" style="fill: #0000ff; fill-opacity: 0.25; stroke-dasharray: 3.7,1.6; stroke-dashoffset: 0; stroke: #0000ff"/>
   </g>
   <g id="PolyCollection_2">
    <path d="M 51.274342 243.150185 
L 51.274342 243.16 
L 55.90164 243.16 
L 60.528939 243.16 
L 65.156237 243.16 
L 69.783536 243.16 
L 74.410835 243.16 
L 79.038133 243.16 
L 83.665432 243.16 
L 88.29273 243.16 
L 92.920029 243.16 
L 97.547327 243.16 
L 102.174626 243.16 
L 106.801925 243.16 
L 111.429223 243.16 
L 116.056522 243.16 
L 120.68382 243.16 
L 125.311119 243.16 
L 129.938418 243.16 
L 134.565716 243.16 
L 139.193015 243.16 
L 143.820313 243.16 
L 148.447612 243.16 
L 153.07491 243.16 
L 157.702209 243.16 
L 162.329508 243.16 
L 166.956806 243.16 
L 171.584105 243.16 
L 176.211403 243.16 
L 180.838702 243.16 
L 185.466 243.16 
L 190.093299 243.16 
L 194.720598 243.16 
L 199.347896 243.16 
L 203.975195 243.16 
L 208.602493 243.16 
L 213.229792 243.16 
L 217.85709 243.16 
L 222.484389 243.16 
L 227.111688 243.16 
L 231.738986 243.16 
L 236.366285 243.16 
L 240.993583 243.16 
L 245.620882 243.16 
L 250.24818 243.16 
L 254.875479 243.16 
L 259.502778 243.16 
L 264.130076 243.16 
L 268.757375 243.16 
L 273.384673 243.16 
L 278.011972 243.16 
L 282.639271 243.16 
L 287.266569 243.16 
L 291.893868 243.16 
L 296.521166 243.16 
L 301.148465 243.16 
L 305.775763 243.16 
L 310.403062 243.16 
L 315.030361 243.16 
L 319.657659 243.16 
L 324.284958 243.16 
L 328.912256 243.16 
L 333.539555 243.16 
L 338.166853 243.16 
L 342.794152 243.16 
L 347.421451 243.16 
L 352.048749 243.16 
L 356.676048 243.16 
L 361.303346 243.16 
L 365.930645 243.16 
L 370.557943 243.16 
L 375.185242 243.16 
L 379.812541 243.16 
L 384.439839 243.16 
L 389.067138 243.16 
L 393.694436 243.16 
L 398.321735 243.16 
L 402.949033 243.16 
L 407.576332 243.16 
L 412.203631 243.16 
L 416.830929 243.16 
L 421.458228 243.16 
L 426.085526 243.16 
L 430.712825 243.16 
L 435.340124 243.16 
L 439.967422 243.16 
L 444.594721 243.16 
L 449.222019 243.16 
L 453.849318 243.16 
L 458.476616 243.16 
L 463.103915 243.16 
L 467.731214 243.16 
L 472.358512 243.16 
L 476.985811 243.16 
L 481.613109 243.16 
L 486.240408 243.16 
L 490.867706 243.16 
L 495.495005 243.16 
L 500.122304 243.16 
L 504.749602 243.16 
L 509.376901 243.16 
L 514.004199 243.16 
L 518.631498 243.16 
L 523.258796 243.16 
L 527.886095 243.16 
L 532.513394 243.16 
L 537.140692 243.16 
L 541.767991 243.16 
L 546.395289 243.16 
L 551.022588 243.16 
L 555.649886 243.16 
L 560.277185 243.16 
L 564.904484 243.16 
L 569.531782 243.16 
L 574.159081 243.16 
L 578.786379 243.16 
L 583.413678 243.16 
L 588.040976 243.16 
L 592.668275 243.16 
L 597.295574 243.16 
L 601.922872 243.16 
L 606.550171 243.16 
L 611.177469 243.16 
L 615.804768 243.16 
L 620.432067 243.16 
L 625.059365 243.16 
L 629.686664 243.16 
L 634.313962 243.16 
L 638.941261 243.16 
L 643.568559 243.16 
L 648.195858 243.16 
L 652.823157 243.16 
L 657.450455 243.16 
L 662.077754 243.16 
L 666.705052 243.16 
L 671.332351 243.16 
L 675.959649 243.16 
L 680.586948 243.16 
L 685.214247 243.16 
L 689.841545 243.16 
L 694.468844 243.16 
L 699.096142 243.16 
L 703.723441 243.16 
L 708.350739 243.16 
L 712.978038 243.16 
L 717.605337 243.16 
L 722.232635 243.16 
L 726.859934 243.16 
L 731.487232 243.16 
L 736.114531 243.16 
L 740.741829 243.16 
L 745.369128 243.16 
L 749.996427 243.16 
L 754.623725 243.16 
L 759.251024 243.16 
L 763.878322 243.16 
L 768.505621 243.16 
L 773.13292 243.16 
L 777.760218 243.16 
L 782.387517 243.16 
L 787.014815 243.16 
L 791.642114 243.16 
L 796.269412 243.16 
L 800.896711 243.16 
L 805.52401 243.16 
L 810.151308 243.16 
L 814.778607 243.16 
L 819.405905 243.16 
L 824.033204 243.16 
L 828.660502 243.16 
L 833.287801 243.16 
L 837.9151 243.16 
L 842.542398 243.16 
L 847.169697 243.16 
L 851.796995 243.16 
L 856.424294 243.16 
L 861.051592 243.16 
L 865.678891 243.16 
L 870.30619 243.16 
L 874.933488 243.16 
L 879.560787 243.16 
L 884.188085 243.16 
L 888.815384 243.16 
L 893.442682 243.16 
L 898.069981 243.16 
L 902.69728 243.16 
L 907.324578 243.16 
L 911.951877 243.16 
L 916.579175 243.16 
L 921.206474 243.16 
L 925.833773 243.16 
L 930.461071 243.16 
L 935.08837 243.16 
L 939.715668 243.16 
L 944.342967 243.16 
L 948.970265 243.16 
L 953.597564 243.16 
L 958.224863 243.16 
L 962.852161 243.16 
L 967.47946 243.16 
L 972.106758 243.16 
L 972.106758 243.159964 
L 972.106758 243.159964 
L 967.47946 243.158205 
L 962.852161 243.157714 
L 958.224863 243.159926 
L 953.597564 243.16 
L 948.970265 243.16 
L 944.342967 243.16 
L 939.715668 243.16 
L 935.08837 243.16 
L 930.461071 243.16 
L 925.833773 243.16 
L 921.206474 243.16 
L 916.579175 243.16 
L 911.951877 243.16 
L 907.324578 243.16 
L 902.69728 243.16 
L 898.069981 243.16 
L 893.442682 243.159998 
L 888.815384 243.159524 
L 884.188085 243.155693 
L 879.560787 243.154587 
L 874.933488 243.157165 
L 870.30619 243.156726 
L 865.678891 243.159353 
L 861.051592 243.159997 
L 856.424294 243.16 
L 851.796995 243.16 
L 847.169697 243.16 
L 842.542398 243.16 
L 837.9151 243.16 
L 833.287801 243.16 
L 828.660502 243.16 
L 824.033204 243.16 
L 819.405905 243.16 
L 814.778607 243.16 
L 810.151308 243.16 
L 805.52401 243.16 
L 800.896711 243.16 
L 796.269412 243.16 
L 791.642114 243.16 
L 787.014815 243.16 
L 782.387517 243.159963 
L 777.760218 243.158188 
L 773.13292 243.157729 
L 768.505621 243.159927 
L 763.878322 243.15989 
L 759.251024 243.157444 
L 754.623725 243.158461 
L 749.996427 243.158435 
L 745.369128 243.15747 
L 740.741829 243.159894 
L 736.114531 243.16 
L 731.487232 243.16 
L 726.859934 243.16 
L 722.232635 243.16 
L 717.605337 243.159796 
L 712.978038 243.15706 
L 708.350739 243.158921 
L 703.723441 243.15999 
L 699.096142 243.16 
L 694.468844 243.159958 
L 689.841545 243.157819 
L 685.214247 243.151496 
L 680.586948 243.149938 
L 675.959649 243.155652 
L 671.332351 243.159744 
L 666.705052 243.159999 
L 662.077754 243.16 
L 657.450455 243.16 
L 652.823157 243.159978 
L 648.195858 243.158432 
L 643.568559 243.155043 
L 638.941261 243.158178 
L 634.313962 243.159899 
L 629.686664 243.157761 
L 625.059365 243.158156 
L 620.432067 243.159961 
L 615.804768 243.159998 
L 611.177469 243.159488 
L 606.550171 243.156722 
L 601.922872 243.157355 
L 597.295574 243.15508 
L 592.668275 243.158657 
L 588.040976 243.158024 
L 583.413678 243.155056 
L 578.786379 243.158558 
L 574.159081 243.15987 
L 569.531782 243.157424 
L 564.904484 243.157675 
L 560.277185 243.155285 
L 555.649886 243.156886 
L 551.022588 243.156793 
L 546.395289 243.159144 
L 541.767991 243.159749 
L 537.140692 243.156889 
L 532.513394 243.152537 
L 527.886095 243.145193 
L 523.258796 243.144505 
L 518.631498 243.15462 
L 514.004199 243.157731 
L 509.376901 243.154619 
L 504.749602 243.155495 
L 500.122304 243.156776 
L 495.495005 243.139444 
L 490.867706 243.116577 
L 486.240408 243.121696 
L 481.613109 243.118335 
L 476.985811 243.118844 
L 472.358512 243.143315 
L 467.731214 243.148124 
L 463.103915 243.140299 
L 458.476616 243.138977 
L 453.849318 243.124048 
L 449.222019 243.127949 
L 444.594721 243.107668 
L 439.967422 243.121903 
L 435.340124 243.121779 
L 430.712825 243.093362 
L 426.085526 243.135975 
L 421.458228 243.137648 
L 416.830929 243.114253 
L 412.203631 243.090768 
L 407.576332 243.099613 
L 402.949033 243.10926 
L 398.321735 243.083036 
L 393.694436 243.104935 
L 389.067138 243.111638 
L 384.439839 243.077441 
L 379.812541 243.114716 
L 375.185242 243.092623 
L 370.557943 243.087331 
L 365.930645 243.084265 
L 361.303346 243.099447 
L 356.676048 243.056845 
L 352.048749 243.045746 
L 347.421451 243.061077 
L 342.794152 243.071676 
L 338.166853 243.026256 
L 333.539555 243.011615 
L 328.912256 242.945606 
L 324.284958 242.987625 
L 319.657659 243.035286 
L 315.030361 242.998611 
L 310.403062 242.954618 
L 305.775763 242.933865 
L 301.148465 242.941736 
L 296.521166 242.95389 
L 291.893868 242.904877 
L 287.266569 242.848628 
L 282.639271 242.781389 
L 278.011972 242.821665 
L 273.384673 242.768902 
L 268.757375 242.680642 
L 264.130076 242.593729 
L 259.502778 242.680138 
L 254.875479 242.638355 
L 250.24818 242.611719 
L 245.620882 242.574869 
L 240.993583 242.553068 
L 236.366285 242.468052 
L 231.738986 242.428473 
L 227.111688 242.233513 
L 222.484389 242.177783 
L 217.85709 241.952381 
L 213.229792 241.717219 
L 208.602493 241.58545 
L 203.975195 241.280244 
L 199.347896 240.614985 
L 194.720598 241.353373 
L 190.093299 241.433455 
L 185.466 241.151058 
L 180.838702 240.96123 
L 176.211403 240.75089 
L 171.584105 240.491386 
L 166.956806 240.203156 
L 162.329508 239.917963 
L 157.702209 239.522397 
L 153.07491 239.51969 
L 148.447612 238.798107 
L 143.820313 235.067982 
L 139.193015 235.219489 
L 134.565716 233.208493 
L 129.938418 230.775374 
L 125.311119 231.389224 
L 120.68382 228.080056 
L 116.056522 225.28572 
L 111.429223 221.242884 
L 106.801925 204.29269 
L 102.174626 196.537853 
L 97.547327 187.365997 
L 92.920029 156.030636 
L 88.29273 137.610962 
L 83.665432 121.545393 
L 79.038133 92.204754 
L 74.410835 97.248843 
L 69.783536 88.025844 
L 65.156237 21.864762 
L 60.528939 99.177479 
L 55.90164 236.791554 
L 51.274342 243.150185 
z
" clip-path="url(#p8ecfd55e7e)" style="fill: #008000; fill-opacity: 0.25; stroke: #008000"/>
   </g>
   <g id="matplotlib.axis_1">
    <g id="xtick_1">
     <g id="line2d_1">
      <defs>
       <path id="m78fe7ac532" d="M 0 0 
L 0 3.5 
" style="stroke: #000000; stroke-width: 0.8"/>
      </defs>
      <g>
       <use xlink:href="#m78fe7ac532" x="58.52" y="243.16" style="stroke: #000000; stroke-width: 0.8"/>
      </g>
     </g>
     <g id="text_1">
      <!-- 0 -->
      <g transform="translate(54.7025 259.278125) scale(0.12 -0.12)">
       <defs>
        <path id="DejaVuSans-30" d="M 2034 4250 
Q 1547 4250 1301 3770 
Q 1056 3291 1056 2328 
Q 1056 1369 1301 889 
Q 1547 409 2034 409 
Q 2525 409 2770 889 
Q 3016 1369 3016 2328 
Q 3016 3291 2770 3770 
Q 2525 4250 2034 4250 
z
M 2034 4750 
Q 2819 4750 3233 4129 
Q 3647 3509 3647 2328 
Q 3647 1150 3233 529 
Q 2819 -91 2034 -91 
Q 1250 -91 836 529 
Q 422 1150 422 2328 
Q 422 3509 836 4129 
Q 1250 4750 2034 4750 
z
" transform="scale(0.015625)"/>
       </defs>
       <use xlink:href="#DejaVuSans-30"/>
      </g>
     </g>
    </g>
    <g id="xtick_2">
     <g id="line2d_2">
      <g>
       <use xlink:href="#m78fe7ac532" x="128.779" y="243.16" style="stroke: #000000; stroke-width: 0.8"/>
      </g>
     </g>
     <g id="text_2">
      <!-- 20 -->
      <g transform="translate(121.144 259.278125) scale(0.12 -0.12)">
       <defs>
        <path id="DejaVuSans-32" d="M 1228 531 
L 3431 531 
L 3431 0 
L 469 0 
L 469 531 
Q 828 903 1448 1529 
Q 2069 2156 2228 2338 
Q 2531 2678 2651 2914 
Q 2772 3150 2772 3378 
Q 2772 3750 2511 3984 
Q 2250 4219 1831 4219 
Q 1534 4219 1204 4116 
Q 875 4013 500 3803 
L 500 4441 
Q 881 4594 1212 4672 
Q 1544 4750 1819 4750 
Q 2544 4750 2975 4387 
Q 3406 4025 3406 3419 
Q 3406 3131 3298 2873 
Q 3191 2616 2906 2266 
Q 2828 2175 2409 1742 
Q 1991 1309 1228 531 
z
" transform="scale(0.015625)"/>
       </defs>
       <use xlink:href="#DejaVuSans-32"/>
       <use xlink:href="#DejaVuSans-30" x="63.623047"/>
      </g>
     </g>
    </g>
    <g id="xtick_3">
     <g id="line2d_3">
      <g>
       <use xlink:href="#m78fe7ac532" x="199.038" y="243.16" style="stroke: #000000; stroke-width: 0.8"/>
      </g>
     </g>
     <g id="text_3">
      <!-- 40 -->
      <g transform="translate(191.403 259.278125) scale(0.12 -0.12)">
       <defs>
        <path id="DejaVuSans-34" d="M 2419 4116 
L 825 1625 
L 2419 1625 
L 2419 4116 
z
M 2253 4666 
L 3047 4666 
L 3047 1625 
L 3713 1625 
L 3713 1100 
L 3047 1100 
L 3047 0 
L 2419 0 
L 2419 1100 
L 313 1100 
L 313 1709 
L 2253 4666 
z
" transform="scale(0.015625)"/>
       </defs>
       <use xlink:href="#DejaVuSans-34"/>
       <use xlink:href="#DejaVuSans-30" x="63.623047"/>
      </g>
     </g>
    </g>
    <g id="xtick_4">
     <g id="line2d_4">
      <g>
       <use xlink:href="#m78fe7ac532" x="269.297" y="243.16" style="stroke: #000000; stroke-width: 0.8"/>
      </g>
     </g>
     <g id="text_4">
      <!-- 60 -->
      <g transform="translate(261.662 259.278125) scale(0.12 -0.12)">
       <defs>
        <path id="DejaVuSans-36" d="M 2113 2584 
Q 1688 2584 1439 2293 
Q 1191 2003 1191 1497 
Q 1191 994 1439 701 
Q 1688 409 2113 409 
Q 2538 409 2786 701 
Q 3034 994 3034 1497 
Q 3034 2003 2786 2293 
Q 2538 2584 2113 2584 
z
M 3366 4563 
L 3366 3988 
Q 3128 4100 2886 4159 
Q 2644 4219 2406 4219 
Q 1781 4219 1451 3797 
Q 1122 3375 1075 2522 
Q 1259 2794 1537 2939 
Q 1816 3084 2150 3084 
Q 2853 3084 3261 2657 
Q 3669 2231 3669 1497 
Q 3669 778 3244 343 
Q 2819 -91 2113 -91 
Q 1303 -91 875 529 
Q 447 1150 447 2328 
Q 447 3434 972 4092 
Q 1497 4750 2381 4750 
Q 2619 4750 2861 4703 
Q 3103 4656 3366 4563 
z
" transform="scale(0.015625)"/>
       </defs>
       <use xlink:href="#DejaVuSans-36"/>
       <use xlink:href="#DejaVuSans-30" x="63.623047"/>
      </g>
     </g>
    </g>
    <g id="xtick_5">
     <g id="line2d_5">
      <g>
       <use xlink:href="#m78fe7ac532" x="339.556" y="243.16" style="stroke: #000000; stroke-width: 0.8"/>
      </g>
     </g>
     <g id="text_5">
      <!-- 80 -->
      <g transform="translate(331.921 259.278125) scale(0.12 -0.12)">
       <defs>
        <path id="DejaVuSans-38" d="M 2034 2216 
Q 1584 2216 1326 1975 
Q 1069 1734 1069 1313 
Q 1069 891 1326 650 
Q 1584 409 2034 409 
Q 2484 409 2743 651 
Q 3003 894 3003 1313 
Q 3003 1734 2745 1975 
Q 2488 2216 2034 2216 
z
M 1403 2484 
Q 997 2584 770 2862 
Q 544 3141 544 3541 
Q 544 4100 942 4425 
Q 1341 4750 2034 4750 
Q 2731 4750 3128 4425 
Q 3525 4100 3525 3541 
Q 3525 3141 3298 2862 
Q 3072 2584 2669 2484 
Q 3125 2378 3379 2068 
Q 3634 1759 3634 1313 
Q 3634 634 3220 271 
Q 2806 -91 2034 -91 
Q 1263 -91 848 271 
Q 434 634 434 1313 
Q 434 1759 690 2068 
Q 947 2378 1403 2484 
z
M 1172 3481 
Q 1172 3119 1398 2916 
Q 1625 2713 2034 2713 
Q 2441 2713 2670 2916 
Q 2900 3119 2900 3481 
Q 2900 3844 2670 4047 
Q 2441 4250 2034 4250 
Q 1625 4250 1398 4047 
Q 1172 3844 1172 3481 
z
" transform="scale(0.015625)"/>
       </defs>
       <use xlink:href="#DejaVuSans-38"/>
       <use xlink:href="#DejaVuSans-30" x="63.623047"/>
      </g>
     </g>
    </g>
    <g id="xtick_6">
     <g id="line2d_6">
      <g>
       <use xlink:href="#m78fe7ac532" x="409.815" y="243.16" style="stroke: #000000; stroke-width: 0.8"/>
      </g>
     </g>
     <g id="text_6">
      <!-- 100 -->
      <g transform="translate(398.3625 259.278125) scale(0.12 -0.12)">
       <defs>
        <path id="DejaVuSans-31" d="M 794 531 
L 1825 531 
L 1825 4091 
L 703 3866 
L 703 4441 
L 1819 4666 
L 2450 4666 
L 2450 531 
L 3481 531 
L 3481 0 
L 794 0 
L 794 531 
z
" transform="scale(0.015625)"/>
       </defs>
       <use xlink:href="#DejaVuSans-31"/>
       <use xlink:href="#DejaVuSans-30" x="63.623047"/>
       <use xlink:href="#DejaVuSans-30" x="127.246094"/>
      </g>
     </g>
    </g>
    <g id="text_7">
     <!-- Mean Number of Changes -->
     <g transform="translate(169.122969 273.372187) scale(0.1 -0.1)">
      <defs>
       <path id="DejaVuSans-4d" d="M 628 4666 
L 1569 4666 
L 2759 1491 
L 3956 4666 
L 4897 4666 
L 4897 0 
L 4281 0 
L 4281 4097 
L 3078 897 
L 2444 897 
L 1241 4097 
L 1241 0 
L 628 0 
L 628 4666 
z
" transform="scale(0.015625)"/>
       <path id="DejaVuSans-65" d="M 3597 1894 
L 3597 1613 
L 953 1613 
Q 991 1019 1311 708 
Q 1631 397 2203 397 
Q 2534 397 2845 478 
Q 3156 559 3463 722 
L 3463 178 
Q 3153 47 2828 -22 
Q 2503 -91 2169 -91 
Q 1331 -91 842 396 
Q 353 884 353 1716 
Q 353 2575 817 3079 
Q 1281 3584 2069 3584 
Q 2775 3584 3186 3129 
Q 3597 2675 3597 1894 
z
M 3022 2063 
Q 3016 2534 2758 2815 
Q 2500 3097 2075 3097 
Q 1594 3097 1305 2825 
Q 1016 2553 972 2059 
L 3022 2063 
z
" transform="scale(0.015625)"/>
       <path id="DejaVuSans-61" d="M 2194 1759 
Q 1497 1759 1228 1600 
Q 959 1441 959 1056 
Q 959 750 1161 570 
Q 1363 391 1709 391 
Q 2188 391 2477 730 
Q 2766 1069 2766 1631 
L 2766 1759 
L 2194 1759 
z
M 3341 1997 
L 3341 0 
L 2766 0 
L 2766 531 
Q 2569 213 2275 61 
Q 1981 -91 1556 -91 
Q 1019 -91 701 211 
Q 384 513 384 1019 
Q 384 1609 779 1909 
Q 1175 2209 1959 2209 
L 2766 2209 
L 2766 2266 
Q 2766 2663 2505 2880 
Q 2244 3097 1772 3097 
Q 1472 3097 1187 3025 
Q 903 2953 641 2809 
L 641 3341 
Q 956 3463 1253 3523 
Q 1550 3584 1831 3584 
Q 2591 3584 2966 3190 
Q 3341 2797 3341 1997 
z
" transform="scale(0.015625)"/>
       <path id="DejaVuSans-6e" d="M 3513 2113 
L 3513 0 
L 2938 0 
L 2938 2094 
Q 2938 2591 2744 2837 
Q 2550 3084 2163 3084 
Q 1697 3084 1428 2787 
Q 1159 2491 1159 1978 
L 1159 0 
L 581 0 
L 581 3500 
L 1159 3500 
L 1159 2956 
Q 1366 3272 1645 3428 
Q 1925 3584 2291 3584 
Q 2894 3584 3203 3211 
Q 3513 2838 3513 2113 
z
" transform="scale(0.015625)"/>
       <path id="DejaVuSans-20" transform="scale(0.015625)"/>
       <path id="DejaVuSans-4e" d="M 628 4666 
L 1478 4666 
L 3547 763 
L 3547 4666 
L 4159 4666 
L 4159 0 
L 3309 0 
L 1241 3903 
L 1241 0 
L 628 0 
L 628 4666 
z
" transform="scale(0.015625)"/>
       <path id="DejaVuSans-75" d="M 544 1381 
L 544 3500 
L 1119 3500 
L 1119 1403 
Q 1119 906 1312 657 
Q 1506 409 1894 409 
Q 2359 409 2629 706 
Q 2900 1003 2900 1516 
L 2900 3500 
L 3475 3500 
L 3475 0 
L 2900 0 
L 2900 538 
Q 2691 219 2414 64 
Q 2138 -91 1772 -91 
Q 1169 -91 856 284 
Q 544 659 544 1381 
z
M 1991 3584 
L 1991 3584 
z
" transform="scale(0.015625)"/>
       <path id="DejaVuSans-6d" d="M 3328 2828 
Q 3544 3216 3844 3400 
Q 4144 3584 4550 3584 
Q 5097 3584 5394 3201 
Q 5691 2819 5691 2113 
L 5691 0 
L 5113 0 
L 5113 2094 
Q 5113 2597 4934 2840 
Q 4756 3084 4391 3084 
Q 3944 3084 3684 2787 
Q 3425 2491 3425 1978 
L 3425 0 
L 2847 0 
L 2847 2094 
Q 2847 2600 2669 2842 
Q 2491 3084 2119 3084 
Q 1678 3084 1418 2786 
Q 1159 2488 1159 1978 
L 1159 0 
L 581 0 
L 581 3500 
L 1159 3500 
L 1159 2956 
Q 1356 3278 1631 3431 
Q 1906 3584 2284 3584 
Q 2666 3584 2933 3390 
Q 3200 3197 3328 2828 
z
" transform="scale(0.015625)"/>
       <path id="DejaVuSans-62" d="M 3116 1747 
Q 3116 2381 2855 2742 
Q 2594 3103 2138 3103 
Q 1681 3103 1420 2742 
Q 1159 2381 1159 1747 
Q 1159 1113 1420 752 
Q 1681 391 2138 391 
Q 2594 391 2855 752 
Q 3116 1113 3116 1747 
z
M 1159 2969 
Q 1341 3281 1617 3432 
Q 1894 3584 2278 3584 
Q 2916 3584 3314 3078 
Q 3713 2572 3713 1747 
Q 3713 922 3314 415 
Q 2916 -91 2278 -91 
Q 1894 -91 1617 61 
Q 1341 213 1159 525 
L 1159 0 
L 581 0 
L 581 4863 
L 1159 4863 
L 1159 2969 
z
" transform="scale(0.015625)"/>
       <path id="DejaVuSans-72" d="M 2631 2963 
Q 2534 3019 2420 3045 
Q 2306 3072 2169 3072 
Q 1681 3072 1420 2755 
Q 1159 2438 1159 1844 
L 1159 0 
L 581 0 
L 581 3500 
L 1159 3500 
L 1159 2956 
Q 1341 3275 1631 3429 
Q 1922 3584 2338 3584 
Q 2397 3584 2469 3576 
Q 2541 3569 2628 3553 
L 2631 2963 
z
" transform="scale(0.015625)"/>
       <path id="DejaVuSans-6f" d="M 1959 3097 
Q 1497 3097 1228 2736 
Q 959 2375 959 1747 
Q 959 1119 1226 758 
Q 1494 397 1959 397 
Q 2419 397 2687 759 
Q 2956 1122 2956 1747 
Q 2956 2369 2687 2733 
Q 2419 3097 1959 3097 
z
M 1959 3584 
Q 2709 3584 3137 3096 
Q 3566 2609 3566 1747 
Q 3566 888 3137 398 
Q 2709 -91 1959 -91 
Q 1206 -91 779 398 
Q 353 888 353 1747 
Q 353 2609 779 3096 
Q 1206 3584 1959 3584 
z
" transform="scale(0.015625)"/>
       <path id="DejaVuSans-66" d="M 2375 4863 
L 2375 4384 
L 1825 4384 
Q 1516 4384 1395 4259 
Q 1275 4134 1275 3809 
L 1275 3500 
L 2222 3500 
L 2222 3053 
L 1275 3053 
L 1275 0 
L 697 0 
L 697 3053 
L 147 3053 
L 147 3500 
L 697 3500 
L 697 3744 
Q 697 4328 969 4595 
Q 1241 4863 1831 4863 
L 2375 4863 
z
" transform="scale(0.015625)"/>
       <path id="DejaVuSans-43" d="M 4122 4306 
L 4122 3641 
Q 3803 3938 3442 4084 
Q 3081 4231 2675 4231 
Q 1875 4231 1450 3742 
Q 1025 3253 1025 2328 
Q 1025 1406 1450 917 
Q 1875 428 2675 428 
Q 3081 428 3442 575 
Q 3803 722 4122 1019 
L 4122 359 
Q 3791 134 3420 21 
Q 3050 -91 2638 -91 
Q 1578 -91 968 557 
Q 359 1206 359 2328 
Q 359 3453 968 4101 
Q 1578 4750 2638 4750 
Q 3056 4750 3426 4639 
Q 3797 4528 4122 4306 
z
" transform="scale(0.015625)"/>
       <path id="DejaVuSans-68" d="M 3513 2113 
L 3513 0 
L 2938 0 
L 2938 2094 
Q 2938 2591 2744 2837 
Q 2550 3084 2163 3084 
Q 1697 3084 1428 2787 
Q 1159 2491 1159 1978 
L 1159 0 
L 581 0 
L 581 4863 
L 1159 4863 
L 1159 2956 
Q 1366 3272 1645 3428 
Q 1925 3584 2291 3584 
Q 2894 3584 3203 3211 
Q 3513 2838 3513 2113 
z
" transform="scale(0.015625)"/>
       <path id="DejaVuSans-67" d="M 2906 1791 
Q 2906 2416 2648 2759 
Q 2391 3103 1925 3103 
Q 1463 3103 1205 2759 
Q 947 2416 947 1791 
Q 947 1169 1205 825 
Q 1463 481 1925 481 
Q 2391 481 2648 825 
Q 2906 1169 2906 1791 
z
M 3481 434 
Q 3481 -459 3084 -895 
Q 2688 -1331 1869 -1331 
Q 1566 -1331 1297 -1286 
Q 1028 -1241 775 -1147 
L 775 -588 
Q 1028 -725 1275 -790 
Q 1522 -856 1778 -856 
Q 2344 -856 2625 -561 
Q 2906 -266 2906 331 
L 2906 616 
Q 2728 306 2450 153 
Q 2172 0 1784 0 
Q 1141 0 747 490 
Q 353 981 353 1791 
Q 353 2603 747 3093 
Q 1141 3584 1784 3584 
Q 2172 3584 2450 3431 
Q 2728 3278 2906 2969 
L 2906 3500 
L 3481 3500 
L 3481 434 
z
" transform="scale(0.015625)"/>
       <path id="DejaVuSans-73" d="M 2834 3397 
L 2834 2853 
Q 2591 2978 2328 3040 
Q 2066 3103 1784 3103 
Q 1356 3103 1142 2972 
Q 928 2841 928 2578 
Q 928 2378 1081 2264 
Q 1234 2150 1697 2047 
L 1894 2003 
Q 2506 1872 2764 1633 
Q 3022 1394 3022 966 
Q 3022 478 2636 193 
Q 2250 -91 1575 -91 
Q 1294 -91 989 -36 
Q 684 19 347 128 
L 347 722 
Q 666 556 975 473 
Q 1284 391 1588 391 
Q 1994 391 2212 530 
Q 2431 669 2431 922 
Q 2431 1156 2273 1281 
Q 2116 1406 1581 1522 
L 1381 1569 
Q 847 1681 609 1914 
Q 372 2147 372 2553 
Q 372 3047 722 3315 
Q 1072 3584 1716 3584 
Q 2034 3584 2315 3537 
Q 2597 3491 2834 3397 
z
" transform="scale(0.015625)"/>
      </defs>
      <use xlink:href="#DejaVuSans-4d"/>
      <use xlink:href="#DejaVuSans-65" x="86.279297"/>
      <use xlink:href="#DejaVuSans-61" x="147.802734"/>
      <use xlink:href="#DejaVuSans-6e" x="209.082031"/>
      <use xlink:href="#DejaVuSans-20" x="272.460938"/>
      <use xlink:href="#DejaVuSans-4e" x="304.248047"/>
      <use xlink:href="#DejaVuSans-75" x="379.052734"/>
      <use xlink:href="#DejaVuSans-6d" x="442.431641"/>
      <use xlink:href="#DejaVuSans-62" x="539.84375"/>
      <use xlink:href="#DejaVuSans-65" x="603.320312"/>
      <use xlink:href="#DejaVuSans-72" x="664.84375"/>
      <use xlink:href="#DejaVuSans-20" x="705.957031"/>
      <use xlink:href="#DejaVuSans-6f" x="737.744141"/>
      <use xlink:href="#DejaVuSans-66" x="798.925781"/>
      <use xlink:href="#DejaVuSans-20" x="834.130859"/>
      <use xlink:href="#DejaVuSans-43" x="865.917969"/>
      <use xlink:href="#DejaVuSans-68" x="935.742188"/>
      <use xlink:href="#DejaVuSans-61" x="999.121094"/>
      <use xlink:href="#DejaVuSans-6e" x="1060.400391"/>
      <use xlink:href="#DejaVuSans-67" x="1123.779297"/>
      <use xlink:href="#DejaVuSans-65" x="1187.255859"/>
      <use xlink:href="#DejaVuSans-73" x="1248.779297"/>
     </g>
    </g>
   </g>
   <g id="matplotlib.axis_2">
    <g id="ytick_1">
     <g id="line2d_7">
      <defs>
       <path id="mba14856a96" d="M 0 0 
L -3.5 0 
" style="stroke: #000000; stroke-width: 0.8"/>
      </defs>
      <g>
       <use xlink:href="#mba14856a96" x="58.52" y="243.16" style="stroke: #000000; stroke-width: 0.8"/>
      </g>
     </g>
     <g id="text_8">
      <!-- 0.00 -->
      <g transform="translate(24.80125 247.719063) scale(0.12 -0.12)">
       <defs>
        <path id="DejaVuSans-2e" d="M 684 794 
L 1344 794 
L 1344 0 
L 684 0 
L 684 794 
z
" transform="scale(0.015625)"/>
       </defs>
       <use xlink:href="#DejaVuSans-30"/>
       <use xlink:href="#DejaVuSans-2e" x="63.623047"/>
       <use xlink:href="#DejaVuSans-30" x="95.410156"/>
       <use xlink:href="#DejaVuSans-30" x="159.033203"/>
      </g>
     </g>
    </g>
    <g id="ytick_2">
     <g id="line2d_8">
      <g>
       <use xlink:href="#mba14856a96" x="58.52" y="205.336485" style="stroke: #000000; stroke-width: 0.8"/>
      </g>
     </g>
     <g id="text_9">
      <!-- 0.02 -->
      <g transform="translate(24.80125 209.895547) scale(0.12 -0.12)">
       <use xlink:href="#DejaVuSans-30"/>
       <use xlink:href="#DejaVuSans-2e" x="63.623047"/>
       <use xlink:href="#DejaVuSans-30" x="95.410156"/>
       <use xlink:href="#DejaVuSans-32" x="159.033203"/>
      </g>
     </g>
    </g>
    <g id="ytick_3">
     <g id="line2d_9">
      <g>
       <use xlink:href="#mba14856a96" x="58.52" y="167.51297" style="stroke: #000000; stroke-width: 0.8"/>
      </g>
     </g>
     <g id="text_10">
      <!-- 0.04 -->
      <g transform="translate(24.80125 172.072032) scale(0.12 -0.12)">
       <use xlink:href="#DejaVuSans-30"/>
       <use xlink:href="#DejaVuSans-2e" x="63.623047"/>
       <use xlink:href="#DejaVuSans-30" x="95.410156"/>
       <use xlink:href="#DejaVuSans-34" x="159.033203"/>
      </g>
     </g>
    </g>
    <g id="ytick_4">
     <g id="line2d_10">
      <g>
       <use xlink:href="#mba14856a96" x="58.52" y="129.689455" style="stroke: #000000; stroke-width: 0.8"/>
      </g>
     </g>
     <g id="text_11">
      <!-- 0.06 -->
      <g transform="translate(24.80125 134.248517) scale(0.12 -0.12)">
       <use xlink:href="#DejaVuSans-30"/>
       <use xlink:href="#DejaVuSans-2e" x="63.623047"/>
       <use xlink:href="#DejaVuSans-30" x="95.410156"/>
       <use xlink:href="#DejaVuSans-36" x="159.033203"/>
      </g>
     </g>
    </g>
    <g id="ytick_5">
     <g id="line2d_11">
      <g>
       <use xlink:href="#mba14856a96" x="58.52" y="91.86594" style="stroke: #000000; stroke-width: 0.8"/>
      </g>
     </g>
     <g id="text_12">
      <!-- 0.08 -->
      <g transform="translate(24.80125 96.425002) scale(0.12 -0.12)">
       <use xlink:href="#DejaVuSans-30"/>
       <use xlink:href="#DejaVuSans-2e" x="63.623047"/>
       <use xlink:href="#DejaVuSans-30" x="95.410156"/>
       <use xlink:href="#DejaVuSans-38" x="159.033203"/>
      </g>
     </g>
    </g>
    <g id="ytick_6">
     <g id="line2d_12">
      <g>
       <use xlink:href="#mba14856a96" x="58.52" y="54.042425" style="stroke: #000000; stroke-width: 0.8"/>
      </g>
     </g>
     <g id="text_13">
      <!-- 0.10 -->
      <g transform="translate(24.80125 58.601487) scale(0.12 -0.12)">
       <use xlink:href="#DejaVuSans-30"/>
       <use xlink:href="#DejaVuSans-2e" x="63.623047"/>
       <use xlink:href="#DejaVuSans-31" x="95.410156"/>
       <use xlink:href="#DejaVuSans-30" x="159.033203"/>
      </g>
     </g>
    </g>
    <g id="ytick_7">
     <g id="line2d_13">
      <g>
       <use xlink:href="#mba14856a96" x="58.52" y="16.218909" style="stroke: #000000; stroke-width: 0.8"/>
      </g>
     </g>
     <g id="text_14">
      <!-- 0.12 -->
      <g transform="translate(24.80125 20.777972) scale(0.12 -0.12)">
       <use xlink:href="#DejaVuSans-30"/>
       <use xlink:href="#DejaVuSans-2e" x="63.623047"/>
       <use xlink:href="#DejaVuSans-31" x="95.410156"/>
       <use xlink:href="#DejaVuSans-32" x="159.033203"/>
      </g>
     </g>
    </g>
    <g id="text_15">
     <!-- Density -->
     <g transform="translate(18.721563 145.988594) rotate(-90) scale(0.1 -0.1)">
      <defs>
       <path id="DejaVuSans-44" d="M 1259 4147 
L 1259 519 
L 2022 519 
Q 2988 519 3436 956 
Q 3884 1394 3884 2338 
Q 3884 3275 3436 3711 
Q 2988 4147 2022 4147 
L 1259 4147 
z
M 628 4666 
L 1925 4666 
Q 3281 4666 3915 4102 
Q 4550 3538 4550 2338 
Q 4550 1131 3912 565 
Q 3275 0 1925 0 
L 628 0 
L 628 4666 
z
" transform="scale(0.015625)"/>
       <path id="DejaVuSans-69" d="M 603 3500 
L 1178 3500 
L 1178 0 
L 603 0 
L 603 3500 
z
M 603 4863 
L 1178 4863 
L 1178 4134 
L 603 4134 
L 603 4863 
z
" transform="scale(0.015625)"/>
       <path id="DejaVuSans-74" d="M 1172 4494 
L 1172 3500 
L 2356 3500 
L 2356 3053 
L 1172 3053 
L 1172 1153 
Q 1172 725 1289 603 
Q 1406 481 1766 481 
L 2356 481 
L 2356 0 
L 1766 0 
Q 1100 0 847 248 
Q 594 497 594 1153 
L 594 3053 
L 172 3053 
L 172 3500 
L 594 3500 
L 594 4494 
L 1172 4494 
z
" transform="scale(0.015625)"/>
       <path id="DejaVuSans-79" d="M 2059 -325 
Q 1816 -950 1584 -1140 
Q 1353 -1331 966 -1331 
L 506 -1331 
L 506 -850 
L 844 -850 
Q 1081 -850 1212 -737 
Q 1344 -625 1503 -206 
L 1606 56 
L 191 3500 
L 800 3500 
L 1894 763 
L 2988 3500 
L 3597 3500 
L 2059 -325 
z
" transform="scale(0.015625)"/>
      </defs>
      <use xlink:href="#DejaVuSans-44"/>
      <use xlink:href="#DejaVuSans-65" x="77.001953"/>
      <use xlink:href="#DejaVuSans-6e" x="138.525391"/>
      <use xlink:href="#DejaVuSans-73" x="201.904297"/>
      <use xlink:href="#DejaVuSans-69" x="254.003906"/>
      <use xlink:href="#DejaVuSans-74" x="281.787109"/>
      <use xlink:href="#DejaVuSans-79" x="320.996094"/>
     </g>
    </g>
   </g>
   <g id="patch_3">
    <path d="M 58.52 243.16 
L 58.52 10.8 
" style="fill: none; stroke: #000000; stroke-width: 0.8; stroke-linejoin: miter; stroke-linecap: square"/>
   </g>
   <g id="patch_4">
    <path d="M 409.815 243.16 
L 409.815 10.8 
" style="fill: none; stroke: #000000; stroke-width: 0.8; stroke-linejoin: miter; stroke-linecap: square"/>
   </g>
   <g id="patch_5">
    <path d="M 58.52 243.16 
L 409.815 243.16 
" style="fill: none; stroke: #000000; stroke-width: 0.8; stroke-linejoin: miter; stroke-linecap: square"/>
   </g>
   <g id="patch_6">
    <path d="M 58.52 10.8 
L 409.815 10.8 
" style="fill: none; stroke: #000000; stroke-width: 0.8; stroke-linejoin: miter; stroke-linecap: square"/>
   </g>
   <g id="legend_1">
    <g id="patch_7">
     <path d="M 309.256875 55.6275 
L 401.415 55.6275 
Q 403.815 55.6275 403.815 53.2275 
L 403.815 19.2 
Q 403.815 16.8 401.415 16.8 
L 309.256875 16.8 
Q 306.856875 16.8 306.856875 19.2 
L 306.856875 53.2275 
Q 306.856875 55.6275 309.256875 55.6275 
z
" style="fill: #ffffff; opacity: 0.8; stroke: #cccccc; stroke-linejoin: miter"/>
    </g>
    <g id="patch_8">
     <path d="M 311.656875 30.718125 
L 335.656875 30.718125 
L 335.656875 22.318125 
L 311.656875 22.318125 
z
" style="fill: #0000ff; fill-opacity: 0.25; stroke-dasharray: 3.7,1.6; stroke-dashoffset: 0; stroke: #0000ff; stroke-linejoin: miter"/>
    </g>
    <g id="text_16">
     <!-- Difftastic -->
     <g transform="translate(345.256875 30.718125) scale(0.12 -0.12)">
      <defs>
       <path id="DejaVuSans-63" d="M 3122 3366 
L 3122 2828 
Q 2878 2963 2633 3030 
Q 2388 3097 2138 3097 
Q 1578 3097 1268 2742 
Q 959 2388 959 1747 
Q 959 1106 1268 751 
Q 1578 397 2138 397 
Q 2388 397 2633 464 
Q 2878 531 3122 666 
L 3122 134 
Q 2881 22 2623 -34 
Q 2366 -91 2075 -91 
Q 1284 -91 818 406 
Q 353 903 353 1747 
Q 353 2603 823 3093 
Q 1294 3584 2113 3584 
Q 2378 3584 2631 3529 
Q 2884 3475 3122 3366 
z
" transform="scale(0.015625)"/>
      </defs>
      <use xlink:href="#DejaVuSans-44"/>
      <use xlink:href="#DejaVuSans-69" x="77.001953"/>
      <use xlink:href="#DejaVuSans-66" x="104.785156"/>
      <use xlink:href="#DejaVuSans-66" x="139.990234"/>
      <use xlink:href="#DejaVuSans-74" x="173.445312"/>
      <use xlink:href="#DejaVuSans-61" x="212.654297"/>
      <use xlink:href="#DejaVuSans-73" x="273.933594"/>
      <use xlink:href="#DejaVuSans-74" x="326.033203"/>
      <use xlink:href="#DejaVuSans-69" x="365.242188"/>
      <use xlink:href="#DejaVuSans-63" x="393.025391"/>
     </g>
    </g>
    <g id="patch_9">
     <path d="M 311.656875 48.331875 
L 335.656875 48.331875 
L 335.656875 39.931875 
L 311.656875 39.931875 
z
" style="fill: #008000; fill-opacity: 0.25; stroke: #008000; stroke-linejoin: miter"/>
    </g>
    <g id="text_17">
     <!-- SoliDiffy -->
     <g transform="translate(345.256875 48.331875) scale(0.12 -0.12)">
      <defs>
       <path id="DejaVuSans-53" d="M 3425 4513 
L 3425 3897 
Q 3066 4069 2747 4153 
Q 2428 4238 2131 4238 
Q 1616 4238 1336 4038 
Q 1056 3838 1056 3469 
Q 1056 3159 1242 3001 
Q 1428 2844 1947 2747 
L 2328 2669 
Q 3034 2534 3370 2195 
Q 3706 1856 3706 1288 
Q 3706 609 3251 259 
Q 2797 -91 1919 -91 
Q 1588 -91 1214 -16 
Q 841 59 441 206 
L 441 856 
Q 825 641 1194 531 
Q 1563 422 1919 422 
Q 2459 422 2753 634 
Q 3047 847 3047 1241 
Q 3047 1584 2836 1778 
Q 2625 1972 2144 2069 
L 1759 2144 
Q 1053 2284 737 2584 
Q 422 2884 422 3419 
Q 422 4038 858 4394 
Q 1294 4750 2059 4750 
Q 2388 4750 2728 4690 
Q 3069 4631 3425 4513 
z
" transform="scale(0.015625)"/>
       <path id="DejaVuSans-6c" d="M 603 4863 
L 1178 4863 
L 1178 0 
L 603 0 
L 603 4863 
z
" transform="scale(0.015625)"/>
      </defs>
      <use xlink:href="#DejaVuSans-53"/>
      <use xlink:href="#DejaVuSans-6f" x="63.476562"/>
      <use xlink:href="#DejaVuSans-6c" x="124.658203"/>
      <use xlink:href="#DejaVuSans-69" x="152.441406"/>
      <use xlink:href="#DejaVuSans-44" x="180.224609"/>
      <use xlink:href="#DejaVuSans-69" x="257.226562"/>
      <use xlink:href="#DejaVuSans-66" x="285.009766"/>
      <use xlink:href="#DejaVuSans-66" x="320.214844"/>
      <use xlink:href="#DejaVuSans-79" x="353.669922"/>
     </g>
    </g>
   </g>
  </g>
 </g>
 <defs>
  <clipPath id="p8ecfd55e7e">
   <rect x="58.52" y="10.8" width="351.295" height="232.36"/>
  </clipPath>
 </defs>
</svg>
